%TF.GenerationSoftware,KiCad,Pcbnew,(5.1.6)-1*%
%TF.CreationDate,2025-01-09T16:49:13-05:00*%
%TF.ProjectId,full-can-programmer,66756c6c-2d63-4616-9e2d-70726f677261,rev?*%
%TF.SameCoordinates,Original*%
%TF.FileFunction,Legend,Top*%
%TF.FilePolarity,Positive*%
%FSLAX46Y46*%
G04 Gerber Fmt 4.6, Leading zero omitted, Abs format (unit mm)*
G04 Created by KiCad (PCBNEW (5.1.6)-1) date 2025-01-09 16:49:13*
%MOMM*%
%LPD*%
G01*
G04 APERTURE LIST*
%ADD10C,0.150000*%
%ADD11C,0.120000*%
%ADD12C,0.100000*%
%ADD13C,0.200000*%
G04 APERTURE END LIST*
D10*
X150020785Y-84577928D02*
X150770785Y-84327928D01*
X150020785Y-84077928D01*
X150770785Y-83827928D02*
X150020785Y-83827928D01*
X150770785Y-83470785D02*
X150020785Y-83470785D01*
X150770785Y-83042214D01*
X150020785Y-83042214D01*
X158122928Y-90289071D02*
X158265785Y-90336690D01*
X158313404Y-90384309D01*
X158361023Y-90479547D01*
X158361023Y-90622404D01*
X158313404Y-90717642D01*
X158265785Y-90765261D01*
X158170547Y-90812880D01*
X157789595Y-90812880D01*
X157789595Y-89812880D01*
X158122928Y-89812880D01*
X158218166Y-89860500D01*
X158265785Y-89908119D01*
X158313404Y-90003357D01*
X158313404Y-90098595D01*
X158265785Y-90193833D01*
X158218166Y-90241452D01*
X158122928Y-90289071D01*
X157789595Y-90289071D01*
X157813404Y-85129666D02*
X158289595Y-85129666D01*
X157718166Y-85415380D02*
X158051500Y-84415380D01*
X158384833Y-85415380D01*
X150735071Y-92414214D02*
X150770785Y-92307071D01*
X150770785Y-92128500D01*
X150735071Y-92057071D01*
X150699357Y-92021357D01*
X150627928Y-91985642D01*
X150556500Y-91985642D01*
X150485071Y-92021357D01*
X150449357Y-92057071D01*
X150413642Y-92128500D01*
X150377928Y-92271357D01*
X150342214Y-92342785D01*
X150306500Y-92378500D01*
X150235071Y-92414214D01*
X150163642Y-92414214D01*
X150092214Y-92378500D01*
X150056500Y-92342785D01*
X150020785Y-92271357D01*
X150020785Y-92092785D01*
X150056500Y-91985642D01*
X150770785Y-91664214D02*
X150020785Y-91664214D01*
X150020785Y-91485642D01*
X150056500Y-91378500D01*
X150127928Y-91307071D01*
X150199357Y-91271357D01*
X150342214Y-91235642D01*
X150449357Y-91235642D01*
X150592214Y-91271357D01*
X150663642Y-91307071D01*
X150735071Y-91378500D01*
X150770785Y-91485642D01*
X150770785Y-91664214D01*
X150556500Y-90949928D02*
X150556500Y-90592785D01*
X150770785Y-91021357D02*
X150020785Y-90771357D01*
X150770785Y-90521357D01*
X150735071Y-89919857D02*
X150770785Y-89812714D01*
X150770785Y-89634142D01*
X150735071Y-89562714D01*
X150699357Y-89527000D01*
X150627928Y-89491285D01*
X150556500Y-89491285D01*
X150485071Y-89527000D01*
X150449357Y-89562714D01*
X150413642Y-89634142D01*
X150377928Y-89777000D01*
X150342214Y-89848428D01*
X150306500Y-89884142D01*
X150235071Y-89919857D01*
X150163642Y-89919857D01*
X150092214Y-89884142D01*
X150056500Y-89848428D01*
X150020785Y-89777000D01*
X150020785Y-89598428D01*
X150056500Y-89491285D01*
X150699357Y-88741285D02*
X150735071Y-88777000D01*
X150770785Y-88884142D01*
X150770785Y-88955571D01*
X150735071Y-89062714D01*
X150663642Y-89134142D01*
X150592214Y-89169857D01*
X150449357Y-89205571D01*
X150342214Y-89205571D01*
X150199357Y-89169857D01*
X150127928Y-89134142D01*
X150056500Y-89062714D01*
X150020785Y-88955571D01*
X150020785Y-88884142D01*
X150056500Y-88777000D01*
X150092214Y-88741285D01*
X150770785Y-88062714D02*
X150770785Y-88419857D01*
X150020785Y-88419857D01*
X150056500Y-86994928D02*
X150020785Y-87066357D01*
X150020785Y-87173500D01*
X150056500Y-87280642D01*
X150127928Y-87352071D01*
X150199357Y-87387785D01*
X150342214Y-87423500D01*
X150449357Y-87423500D01*
X150592214Y-87387785D01*
X150663642Y-87352071D01*
X150735071Y-87280642D01*
X150770785Y-87173500D01*
X150770785Y-87102071D01*
X150735071Y-86994928D01*
X150699357Y-86959214D01*
X150449357Y-86959214D01*
X150449357Y-87102071D01*
X150770785Y-86637785D02*
X150020785Y-86637785D01*
X150770785Y-86209214D01*
X150020785Y-86209214D01*
X150770785Y-85852071D02*
X150020785Y-85852071D01*
X150020785Y-85673500D01*
X150056500Y-85566357D01*
X150127928Y-85494928D01*
X150199357Y-85459214D01*
X150342214Y-85423500D01*
X150449357Y-85423500D01*
X150592214Y-85459214D01*
X150663642Y-85494928D01*
X150735071Y-85566357D01*
X150770785Y-85673500D01*
X150770785Y-85852071D01*
D11*
%TO.C,C1*%
X145934500Y-84774248D02*
X145934500Y-85296752D01*
X144514500Y-84774248D02*
X144514500Y-85296752D01*
%TO.C,J1*%
X146752000Y-92833500D02*
X149412000Y-92833500D01*
X146752000Y-85153500D02*
X146752000Y-92833500D01*
X149412000Y-85153500D02*
X149412000Y-92833500D01*
X146752000Y-85153500D02*
X149412000Y-85153500D01*
X146752000Y-83883500D02*
X146752000Y-82553500D01*
X146752000Y-82553500D02*
X148082000Y-82553500D01*
D12*
%TO.C,S1*%
X160337500Y-87563000D02*
X160337500Y-87563000D01*
X160337500Y-87663000D02*
X160337500Y-87663000D01*
D13*
X159087500Y-86463000D02*
X159087500Y-83463000D01*
X161587500Y-86463000D02*
X161587500Y-85763000D01*
X161587500Y-84163000D02*
X161587500Y-83463000D01*
D12*
X160337500Y-87663000D02*
G75*
G02*
X160337500Y-87563000I0J50000D01*
G01*
X160337500Y-87563000D02*
G75*
G02*
X160337500Y-87663000I0J-50000D01*
G01*
D13*
%TO.C,S2*%
X161587500Y-89560500D02*
X161587500Y-88860500D01*
X161587500Y-91860500D02*
X161587500Y-91160500D01*
X159087500Y-91860500D02*
X159087500Y-88860500D01*
D12*
X160337500Y-93060500D02*
X160337500Y-93060500D01*
X160337500Y-92960500D02*
X160337500Y-92960500D01*
X160337500Y-92960500D02*
G75*
G02*
X160337500Y-93060500I0J-50000D01*
G01*
X160337500Y-93060500D02*
G75*
G02*
X160337500Y-92960500I0J50000D01*
G01*
D10*
%TO.C,U1*%
X156869500Y-85007000D02*
X156664500Y-85007000D01*
X156869500Y-90507000D02*
X156569500Y-90507000D01*
X151359500Y-90507000D02*
X151659500Y-90507000D01*
X151359500Y-85007000D02*
X151659500Y-85007000D01*
X156869500Y-85007000D02*
X156869500Y-90507000D01*
X151359500Y-85007000D02*
X151359500Y-90507000D01*
X156664500Y-85007000D02*
X156664500Y-83257000D01*
%TO.C,C1*%
X145099500Y-87770857D02*
X145063785Y-87806571D01*
X144956642Y-87842285D01*
X144885214Y-87842285D01*
X144778071Y-87806571D01*
X144706642Y-87735142D01*
X144670928Y-87663714D01*
X144635214Y-87520857D01*
X144635214Y-87413714D01*
X144670928Y-87270857D01*
X144706642Y-87199428D01*
X144778071Y-87128000D01*
X144885214Y-87092285D01*
X144956642Y-87092285D01*
X145063785Y-87128000D01*
X145099500Y-87163714D01*
X145813785Y-87842285D02*
X145385214Y-87842285D01*
X145599500Y-87842285D02*
X145599500Y-87092285D01*
X145528071Y-87199428D01*
X145456642Y-87270857D01*
X145385214Y-87306571D01*
%TO.C,J1*%
X145419000Y-92045285D02*
X145419000Y-92581000D01*
X145383285Y-92688142D01*
X145311857Y-92759571D01*
X145204714Y-92795285D01*
X145133285Y-92795285D01*
X146169000Y-92795285D02*
X145740428Y-92795285D01*
X145954714Y-92795285D02*
X145954714Y-92045285D01*
X145883285Y-92152428D01*
X145811857Y-92223857D01*
X145740428Y-92259571D01*
%TO.C,S1*%
X160826760Y-85714405D02*
X160874379Y-85571548D01*
X160874379Y-85333453D01*
X160826760Y-85238215D01*
X160779141Y-85190596D01*
X160683903Y-85142977D01*
X160588665Y-85142977D01*
X160493427Y-85190596D01*
X160445808Y-85238215D01*
X160398189Y-85333453D01*
X160350570Y-85523929D01*
X160302951Y-85619167D01*
X160255332Y-85666786D01*
X160160094Y-85714405D01*
X160064856Y-85714405D01*
X159969618Y-85666786D01*
X159921999Y-85619167D01*
X159874379Y-85523929D01*
X159874379Y-85285834D01*
X159921999Y-85142977D01*
X160874379Y-84190596D02*
X160874379Y-84762024D01*
X160874379Y-84476310D02*
X159874379Y-84476310D01*
X160017237Y-84571548D01*
X160112475Y-84666786D01*
X160160094Y-84762024D01*
%TO.C,S2*%
X160791760Y-91122404D02*
X160839379Y-90979547D01*
X160839379Y-90741452D01*
X160791760Y-90646214D01*
X160744141Y-90598595D01*
X160648903Y-90550976D01*
X160553665Y-90550976D01*
X160458427Y-90598595D01*
X160410808Y-90646214D01*
X160363189Y-90741452D01*
X160315570Y-90931928D01*
X160267951Y-91027166D01*
X160220332Y-91074785D01*
X160125094Y-91122404D01*
X160029856Y-91122404D01*
X159934618Y-91074785D01*
X159886999Y-91027166D01*
X159839379Y-90931928D01*
X159839379Y-90693833D01*
X159886999Y-90550976D01*
X159934618Y-90170023D02*
X159886999Y-90122404D01*
X159839379Y-90027166D01*
X159839379Y-89789071D01*
X159886999Y-89693833D01*
X159934618Y-89646214D01*
X160029856Y-89598595D01*
X160125094Y-89598595D01*
X160267951Y-89646214D01*
X160839379Y-90217642D01*
X160839379Y-89598595D01*
%TO.C,U1*%
X157196285Y-88328428D02*
X157803428Y-88328428D01*
X157874857Y-88292714D01*
X157910571Y-88257000D01*
X157946285Y-88185571D01*
X157946285Y-88042714D01*
X157910571Y-87971285D01*
X157874857Y-87935571D01*
X157803428Y-87899857D01*
X157196285Y-87899857D01*
X157946285Y-87149857D02*
X157946285Y-87578428D01*
X157946285Y-87364142D02*
X157196285Y-87364142D01*
X157303428Y-87435571D01*
X157374857Y-87507000D01*
X157410571Y-87578428D01*
%TD*%
M02*
