%TF.GenerationSoftware,KiCad,Pcbnew,(5.1.6)-1*%
%TF.CreationDate,2025-01-10T10:07:39-05:00*%
%TF.ProjectId,full-can-programmer,66756c6c-2d63-4616-9e2d-70726f677261,rev?*%
%TF.SameCoordinates,Original*%
%TF.FileFunction,Legend,Top*%
%TF.FilePolarity,Positive*%
%FSLAX46Y46*%
G04 Gerber Fmt 4.6, Leading zero omitted, Abs format (unit mm)*
G04 Created by KiCad (PCBNEW (5.1.6)-1) date 2025-01-10 10:07:39*
%MOMM*%
%LPD*%
G01*
G04 APERTURE LIST*
%ADD10C,0.150000*%
%ADD11C,0.120000*%
%ADD12C,0.200000*%
%ADD13C,0.100000*%
G04 APERTURE END LIST*
D10*
X162018285Y-92828928D02*
X162518285Y-92650357D01*
X162018285Y-92471785D01*
X161768285Y-92043214D02*
X161768285Y-91971785D01*
X161804000Y-91900357D01*
X161839714Y-91864642D01*
X161911142Y-91828928D01*
X162054000Y-91793214D01*
X162232571Y-91793214D01*
X162375428Y-91828928D01*
X162446857Y-91864642D01*
X162482571Y-91900357D01*
X162518285Y-91971785D01*
X162518285Y-92043214D01*
X162482571Y-92114642D01*
X162446857Y-92150357D01*
X162375428Y-92186071D01*
X162232571Y-92221785D01*
X162054000Y-92221785D01*
X161911142Y-92186071D01*
X161839714Y-92150357D01*
X161804000Y-92114642D01*
X161768285Y-92043214D01*
X162446857Y-91471785D02*
X162482571Y-91436071D01*
X162518285Y-91471785D01*
X162482571Y-91507500D01*
X162446857Y-91471785D01*
X162518285Y-91471785D01*
X162518285Y-90721785D02*
X162518285Y-91150357D01*
X162518285Y-90936071D02*
X161768285Y-90936071D01*
X161875428Y-91007500D01*
X161946857Y-91078928D01*
X161982571Y-91150357D01*
X153818785Y-83849714D02*
X153461642Y-84099714D01*
X153818785Y-84278285D02*
X153068785Y-84278285D01*
X153068785Y-83992571D01*
X153104500Y-83921142D01*
X153140214Y-83885428D01*
X153211642Y-83849714D01*
X153318785Y-83849714D01*
X153390214Y-83885428D01*
X153425928Y-83921142D01*
X153461642Y-83992571D01*
X153461642Y-84278285D01*
X153783071Y-83564000D02*
X153818785Y-83456857D01*
X153818785Y-83278285D01*
X153783071Y-83206857D01*
X153747357Y-83171142D01*
X153675928Y-83135428D01*
X153604500Y-83135428D01*
X153533071Y-83171142D01*
X153497357Y-83206857D01*
X153461642Y-83278285D01*
X153425928Y-83421142D01*
X153390214Y-83492571D01*
X153354500Y-83528285D01*
X153283071Y-83564000D01*
X153211642Y-83564000D01*
X153140214Y-83528285D01*
X153104500Y-83492571D01*
X153068785Y-83421142D01*
X153068785Y-83242571D01*
X153104500Y-83135428D01*
X153068785Y-82921142D02*
X153068785Y-82492571D01*
X153818785Y-82706857D02*
X153068785Y-82706857D01*
X153818785Y-87284571D02*
X153068785Y-87284571D01*
X153604500Y-87034571D01*
X153068785Y-86784571D01*
X153818785Y-86784571D01*
X153068785Y-86284571D02*
X153068785Y-86141714D01*
X153104500Y-86070285D01*
X153175928Y-85998857D01*
X153318785Y-85963142D01*
X153568785Y-85963142D01*
X153711642Y-85998857D01*
X153783071Y-86070285D01*
X153818785Y-86141714D01*
X153818785Y-86284571D01*
X153783071Y-86356000D01*
X153711642Y-86427428D01*
X153568785Y-86463142D01*
X153318785Y-86463142D01*
X153175928Y-86427428D01*
X153104500Y-86356000D01*
X153068785Y-86284571D01*
X153783071Y-85677428D02*
X153818785Y-85570285D01*
X153818785Y-85391714D01*
X153783071Y-85320285D01*
X153747357Y-85284571D01*
X153675928Y-85248857D01*
X153604500Y-85248857D01*
X153533071Y-85284571D01*
X153497357Y-85320285D01*
X153461642Y-85391714D01*
X153425928Y-85534571D01*
X153390214Y-85606000D01*
X153354500Y-85641714D01*
X153283071Y-85677428D01*
X153211642Y-85677428D01*
X153140214Y-85641714D01*
X153104500Y-85606000D01*
X153068785Y-85534571D01*
X153068785Y-85356000D01*
X153104500Y-85248857D01*
X153818785Y-84927428D02*
X153068785Y-84927428D01*
X153818785Y-90269071D02*
X153068785Y-90269071D01*
X153604500Y-90019071D01*
X153068785Y-89769071D01*
X153818785Y-89769071D01*
X153818785Y-89411928D02*
X153068785Y-89411928D01*
X153783071Y-89090500D02*
X153818785Y-88983357D01*
X153818785Y-88804785D01*
X153783071Y-88733357D01*
X153747357Y-88697642D01*
X153675928Y-88661928D01*
X153604500Y-88661928D01*
X153533071Y-88697642D01*
X153497357Y-88733357D01*
X153461642Y-88804785D01*
X153425928Y-88947642D01*
X153390214Y-89019071D01*
X153354500Y-89054785D01*
X153283071Y-89090500D01*
X153211642Y-89090500D01*
X153140214Y-89054785D01*
X153104500Y-89019071D01*
X153068785Y-88947642D01*
X153068785Y-88769071D01*
X153104500Y-88661928D01*
X153068785Y-88197642D02*
X153068785Y-88054785D01*
X153104500Y-87983357D01*
X153175928Y-87911928D01*
X153318785Y-87876214D01*
X153568785Y-87876214D01*
X153711642Y-87911928D01*
X153783071Y-87983357D01*
X153818785Y-88054785D01*
X153818785Y-88197642D01*
X153783071Y-88269071D01*
X153711642Y-88340500D01*
X153568785Y-88376214D01*
X153318785Y-88376214D01*
X153175928Y-88340500D01*
X153104500Y-88269071D01*
X153068785Y-88197642D01*
X153783071Y-92785285D02*
X153818785Y-92678142D01*
X153818785Y-92499571D01*
X153783071Y-92428142D01*
X153747357Y-92392428D01*
X153675928Y-92356714D01*
X153604500Y-92356714D01*
X153533071Y-92392428D01*
X153497357Y-92428142D01*
X153461642Y-92499571D01*
X153425928Y-92642428D01*
X153390214Y-92713857D01*
X153354500Y-92749571D01*
X153283071Y-92785285D01*
X153211642Y-92785285D01*
X153140214Y-92749571D01*
X153104500Y-92713857D01*
X153068785Y-92642428D01*
X153068785Y-92463857D01*
X153104500Y-92356714D01*
X153747357Y-91606714D02*
X153783071Y-91642428D01*
X153818785Y-91749571D01*
X153818785Y-91821000D01*
X153783071Y-91928142D01*
X153711642Y-91999571D01*
X153640214Y-92035285D01*
X153497357Y-92071000D01*
X153390214Y-92071000D01*
X153247357Y-92035285D01*
X153175928Y-91999571D01*
X153104500Y-91928142D01*
X153068785Y-91821000D01*
X153068785Y-91749571D01*
X153104500Y-91642428D01*
X153140214Y-91606714D01*
X153818785Y-91285285D02*
X153068785Y-91285285D01*
X153818785Y-90856714D02*
X153390214Y-91178142D01*
X153068785Y-90856714D02*
X153497357Y-91285285D01*
X160090928Y-92241071D02*
X160090928Y-92491071D01*
X160483785Y-92491071D02*
X159733785Y-92491071D01*
X159733785Y-92133928D01*
X159983785Y-91526785D02*
X160483785Y-91526785D01*
X159983785Y-91848214D02*
X160376642Y-91848214D01*
X160448071Y-91812500D01*
X160483785Y-91741071D01*
X160483785Y-91633928D01*
X160448071Y-91562500D01*
X160412357Y-91526785D01*
X160483785Y-91062500D02*
X160448071Y-91133928D01*
X160376642Y-91169642D01*
X159733785Y-91169642D01*
X160483785Y-90669642D02*
X160448071Y-90741071D01*
X160376642Y-90776785D01*
X159733785Y-90776785D01*
X160198071Y-90383928D02*
X160198071Y-89812500D01*
X160448071Y-89133928D02*
X160483785Y-89205357D01*
X160483785Y-89348214D01*
X160448071Y-89419642D01*
X160412357Y-89455357D01*
X160340928Y-89491071D01*
X160126642Y-89491071D01*
X160055214Y-89455357D01*
X160019500Y-89419642D01*
X159983785Y-89348214D01*
X159983785Y-89205357D01*
X160019500Y-89133928D01*
X160483785Y-88491071D02*
X160090928Y-88491071D01*
X160019500Y-88526785D01*
X159983785Y-88598214D01*
X159983785Y-88741071D01*
X160019500Y-88812500D01*
X160448071Y-88491071D02*
X160483785Y-88562500D01*
X160483785Y-88741071D01*
X160448071Y-88812500D01*
X160376642Y-88848214D01*
X160305214Y-88848214D01*
X160233785Y-88812500D01*
X160198071Y-88741071D01*
X160198071Y-88562500D01*
X160162357Y-88491071D01*
X159983785Y-88133928D02*
X160483785Y-88133928D01*
X160055214Y-88133928D02*
X160019500Y-88098214D01*
X159983785Y-88026785D01*
X159983785Y-87919642D01*
X160019500Y-87848214D01*
X160090928Y-87812500D01*
X160483785Y-87812500D01*
X159733785Y-86991071D02*
X160483785Y-86741071D01*
X159733785Y-86491071D01*
X160483785Y-85919642D02*
X160090928Y-85919642D01*
X160019500Y-85955357D01*
X159983785Y-86026785D01*
X159983785Y-86169642D01*
X160019500Y-86241071D01*
X160448071Y-85919642D02*
X160483785Y-85991071D01*
X160483785Y-86169642D01*
X160448071Y-86241071D01*
X160376642Y-86276785D01*
X160305214Y-86276785D01*
X160233785Y-86241071D01*
X160198071Y-86169642D01*
X160198071Y-85991071D01*
X160162357Y-85919642D01*
X160483785Y-85562500D02*
X159983785Y-85562500D01*
X160126642Y-85562500D02*
X160055214Y-85526785D01*
X160019500Y-85491071D01*
X159983785Y-85419642D01*
X159983785Y-85348214D01*
X160483785Y-85098214D02*
X159983785Y-85098214D01*
X159733785Y-85098214D02*
X159769500Y-85133928D01*
X159805214Y-85098214D01*
X159769500Y-85062500D01*
X159733785Y-85098214D01*
X159805214Y-85098214D01*
X160483785Y-84419642D02*
X160090928Y-84419642D01*
X160019500Y-84455357D01*
X159983785Y-84526785D01*
X159983785Y-84669642D01*
X160019500Y-84741071D01*
X160448071Y-84419642D02*
X160483785Y-84491071D01*
X160483785Y-84669642D01*
X160448071Y-84741071D01*
X160376642Y-84776785D01*
X160305214Y-84776785D01*
X160233785Y-84741071D01*
X160198071Y-84669642D01*
X160198071Y-84491071D01*
X160162357Y-84419642D01*
X160483785Y-84062500D02*
X159733785Y-84062500D01*
X160019500Y-84062500D02*
X159983785Y-83991071D01*
X159983785Y-83848214D01*
X160019500Y-83776785D01*
X160055214Y-83741071D01*
X160126642Y-83705357D01*
X160340928Y-83705357D01*
X160412357Y-83741071D01*
X160448071Y-83776785D01*
X160483785Y-83848214D01*
X160483785Y-83991071D01*
X160448071Y-84062500D01*
X160483785Y-83276785D02*
X160448071Y-83348214D01*
X160376642Y-83383928D01*
X159733785Y-83383928D01*
X160448071Y-82705357D02*
X160483785Y-82776785D01*
X160483785Y-82919642D01*
X160448071Y-82991071D01*
X160376642Y-83026785D01*
X160090928Y-83026785D01*
X160019500Y-82991071D01*
X159983785Y-82919642D01*
X159983785Y-82776785D01*
X160019500Y-82705357D01*
X160090928Y-82669642D01*
X160162357Y-82669642D01*
X160233785Y-83026785D01*
X161758785Y-90544642D02*
X161008785Y-90544642D01*
X161008785Y-90258928D01*
X161044500Y-90187500D01*
X161080214Y-90151785D01*
X161151642Y-90116071D01*
X161258785Y-90116071D01*
X161330214Y-90151785D01*
X161365928Y-90187500D01*
X161401642Y-90258928D01*
X161401642Y-90544642D01*
X161758785Y-89794642D02*
X161258785Y-89794642D01*
X161401642Y-89794642D02*
X161330214Y-89758928D01*
X161294500Y-89723214D01*
X161258785Y-89651785D01*
X161258785Y-89580357D01*
X161758785Y-89223214D02*
X161723071Y-89294642D01*
X161687357Y-89330357D01*
X161615928Y-89366071D01*
X161401642Y-89366071D01*
X161330214Y-89330357D01*
X161294500Y-89294642D01*
X161258785Y-89223214D01*
X161258785Y-89116071D01*
X161294500Y-89044642D01*
X161330214Y-89008928D01*
X161401642Y-88973214D01*
X161615928Y-88973214D01*
X161687357Y-89008928D01*
X161723071Y-89044642D01*
X161758785Y-89116071D01*
X161758785Y-89223214D01*
X161258785Y-88330357D02*
X161865928Y-88330357D01*
X161937357Y-88366071D01*
X161973071Y-88401785D01*
X162008785Y-88473214D01*
X162008785Y-88580357D01*
X161973071Y-88651785D01*
X161723071Y-88330357D02*
X161758785Y-88401785D01*
X161758785Y-88544642D01*
X161723071Y-88616071D01*
X161687357Y-88651785D01*
X161615928Y-88687500D01*
X161401642Y-88687500D01*
X161330214Y-88651785D01*
X161294500Y-88616071D01*
X161258785Y-88544642D01*
X161258785Y-88401785D01*
X161294500Y-88330357D01*
X161758785Y-87973214D02*
X161258785Y-87973214D01*
X161401642Y-87973214D02*
X161330214Y-87937500D01*
X161294500Y-87901785D01*
X161258785Y-87830357D01*
X161258785Y-87758928D01*
X161758785Y-87187500D02*
X161365928Y-87187500D01*
X161294500Y-87223214D01*
X161258785Y-87294642D01*
X161258785Y-87437500D01*
X161294500Y-87508928D01*
X161723071Y-87187500D02*
X161758785Y-87258928D01*
X161758785Y-87437500D01*
X161723071Y-87508928D01*
X161651642Y-87544642D01*
X161580214Y-87544642D01*
X161508785Y-87508928D01*
X161473071Y-87437500D01*
X161473071Y-87258928D01*
X161437357Y-87187500D01*
X161758785Y-86830357D02*
X161258785Y-86830357D01*
X161330214Y-86830357D02*
X161294500Y-86794642D01*
X161258785Y-86723214D01*
X161258785Y-86616071D01*
X161294500Y-86544642D01*
X161365928Y-86508928D01*
X161758785Y-86508928D01*
X161365928Y-86508928D02*
X161294500Y-86473214D01*
X161258785Y-86401785D01*
X161258785Y-86294642D01*
X161294500Y-86223214D01*
X161365928Y-86187500D01*
X161758785Y-86187500D01*
X161758785Y-85830357D02*
X161258785Y-85830357D01*
X161330214Y-85830357D02*
X161294500Y-85794642D01*
X161258785Y-85723214D01*
X161258785Y-85616071D01*
X161294500Y-85544642D01*
X161365928Y-85508928D01*
X161758785Y-85508928D01*
X161365928Y-85508928D02*
X161294500Y-85473214D01*
X161258785Y-85401785D01*
X161258785Y-85294642D01*
X161294500Y-85223214D01*
X161365928Y-85187500D01*
X161758785Y-85187500D01*
X161723071Y-84544642D02*
X161758785Y-84616071D01*
X161758785Y-84758928D01*
X161723071Y-84830357D01*
X161651642Y-84866071D01*
X161365928Y-84866071D01*
X161294500Y-84830357D01*
X161258785Y-84758928D01*
X161258785Y-84616071D01*
X161294500Y-84544642D01*
X161365928Y-84508928D01*
X161437357Y-84508928D01*
X161508785Y-84866071D01*
X161758785Y-84187500D02*
X161258785Y-84187500D01*
X161401642Y-84187500D02*
X161330214Y-84151785D01*
X161294500Y-84116071D01*
X161258785Y-84044642D01*
X161258785Y-83973214D01*
X144784071Y-87346285D02*
X145034071Y-88096285D01*
X145284071Y-87346285D01*
X145534071Y-88096285D02*
X145534071Y-87346285D01*
X145891214Y-88096285D02*
X145891214Y-87346285D01*
X146319785Y-88096285D01*
X146319785Y-87346285D01*
X158186428Y-83685071D02*
X158329285Y-83732690D01*
X158376904Y-83780309D01*
X158424523Y-83875547D01*
X158424523Y-84018404D01*
X158376904Y-84113642D01*
X158329285Y-84161261D01*
X158234047Y-84208880D01*
X157853095Y-84208880D01*
X157853095Y-83208880D01*
X158186428Y-83208880D01*
X158281666Y-83256500D01*
X158329285Y-83304119D01*
X158376904Y-83399357D01*
X158376904Y-83494595D01*
X158329285Y-83589833D01*
X158281666Y-83637452D01*
X158186428Y-83685071D01*
X157853095Y-83685071D01*
X157876904Y-91797166D02*
X158353095Y-91797166D01*
X157781666Y-92082880D02*
X158115000Y-91082880D01*
X158448333Y-92082880D01*
X144440785Y-91362571D02*
X144547928Y-91398285D01*
X144726500Y-91398285D01*
X144797928Y-91362571D01*
X144833642Y-91326857D01*
X144869357Y-91255428D01*
X144869357Y-91184000D01*
X144833642Y-91112571D01*
X144797928Y-91076857D01*
X144726500Y-91041142D01*
X144583642Y-91005428D01*
X144512214Y-90969714D01*
X144476500Y-90934000D01*
X144440785Y-90862571D01*
X144440785Y-90791142D01*
X144476500Y-90719714D01*
X144512214Y-90684000D01*
X144583642Y-90648285D01*
X144762214Y-90648285D01*
X144869357Y-90684000D01*
X145190785Y-91398285D02*
X145190785Y-90648285D01*
X145369357Y-90648285D01*
X145476500Y-90684000D01*
X145547928Y-90755428D01*
X145583642Y-90826857D01*
X145619357Y-90969714D01*
X145619357Y-91076857D01*
X145583642Y-91219714D01*
X145547928Y-91291142D01*
X145476500Y-91362571D01*
X145369357Y-91398285D01*
X145190785Y-91398285D01*
X145905071Y-91184000D02*
X146262214Y-91184000D01*
X145833642Y-91398285D02*
X146083642Y-90648285D01*
X146333642Y-91398285D01*
X144458642Y-90219571D02*
X144565785Y-90255285D01*
X144744357Y-90255285D01*
X144815785Y-90219571D01*
X144851500Y-90183857D01*
X144887214Y-90112428D01*
X144887214Y-90041000D01*
X144851500Y-89969571D01*
X144815785Y-89933857D01*
X144744357Y-89898142D01*
X144601500Y-89862428D01*
X144530071Y-89826714D01*
X144494357Y-89791000D01*
X144458642Y-89719571D01*
X144458642Y-89648142D01*
X144494357Y-89576714D01*
X144530071Y-89541000D01*
X144601500Y-89505285D01*
X144780071Y-89505285D01*
X144887214Y-89541000D01*
X145637214Y-90183857D02*
X145601500Y-90219571D01*
X145494357Y-90255285D01*
X145422928Y-90255285D01*
X145315785Y-90219571D01*
X145244357Y-90148142D01*
X145208642Y-90076714D01*
X145172928Y-89933857D01*
X145172928Y-89826714D01*
X145208642Y-89683857D01*
X145244357Y-89612428D01*
X145315785Y-89541000D01*
X145422928Y-89505285D01*
X145494357Y-89505285D01*
X145601500Y-89541000D01*
X145637214Y-89576714D01*
X146315785Y-90255285D02*
X145958642Y-90255285D01*
X145958642Y-89505285D01*
X144780071Y-88461500D02*
X144708642Y-88425785D01*
X144601500Y-88425785D01*
X144494357Y-88461500D01*
X144422928Y-88532928D01*
X144387214Y-88604357D01*
X144351500Y-88747214D01*
X144351500Y-88854357D01*
X144387214Y-88997214D01*
X144422928Y-89068642D01*
X144494357Y-89140071D01*
X144601500Y-89175785D01*
X144672928Y-89175785D01*
X144780071Y-89140071D01*
X144815785Y-89104357D01*
X144815785Y-88854357D01*
X144672928Y-88854357D01*
X145137214Y-89175785D02*
X145137214Y-88425785D01*
X145565785Y-89175785D01*
X145565785Y-88425785D01*
X145922928Y-89175785D02*
X145922928Y-88425785D01*
X146101500Y-88425785D01*
X146208642Y-88461500D01*
X146280071Y-88532928D01*
X146315785Y-88604357D01*
X146351500Y-88747214D01*
X146351500Y-88854357D01*
X146315785Y-88997214D01*
X146280071Y-89068642D01*
X146208642Y-89140071D01*
X146101500Y-89175785D01*
X145922928Y-89175785D01*
D11*
%TO.C,J1*%
X146752000Y-82553500D02*
X148082000Y-82553500D01*
X146752000Y-83883500D02*
X146752000Y-82553500D01*
X146752000Y-85153500D02*
X149412000Y-85153500D01*
X149412000Y-85153500D02*
X149412000Y-92833500D01*
X146752000Y-85153500D02*
X146752000Y-92833500D01*
X146752000Y-92833500D02*
X149412000Y-92833500D01*
D12*
%TO.C,S1*%
X157772000Y-90785000D02*
X158472000Y-90785000D01*
X155472000Y-90785000D02*
X156172000Y-90785000D01*
X155472000Y-88285000D02*
X158472000Y-88285000D01*
D13*
X154272000Y-89535000D02*
X154272000Y-89535000D01*
X154372000Y-89535000D02*
X154372000Y-89535000D01*
X154272000Y-89535000D02*
G75*
G02*
X154372000Y-89535000I50000J0D01*
G01*
X154372000Y-89535000D02*
G75*
G02*
X154272000Y-89535000I-50000J0D01*
G01*
%TO.C,S2*%
X159557500Y-85852000D02*
X159557500Y-85852000D01*
X159657500Y-85852000D02*
X159657500Y-85852000D01*
D12*
X158457500Y-87102000D02*
X155457500Y-87102000D01*
X158457500Y-84602000D02*
X157757500Y-84602000D01*
X156157500Y-84602000D02*
X155457500Y-84602000D01*
D13*
X159557500Y-85852000D02*
G75*
G02*
X159657500Y-85852000I50000J0D01*
G01*
X159657500Y-85852000D02*
G75*
G02*
X159557500Y-85852000I-50000J0D01*
G01*
D11*
%TO.C,J2*%
X150181000Y-82553500D02*
X151511000Y-82553500D01*
X150181000Y-83883500D02*
X150181000Y-82553500D01*
X150181000Y-85153500D02*
X152841000Y-85153500D01*
X152841000Y-85153500D02*
X152841000Y-92833500D01*
X150181000Y-85153500D02*
X150181000Y-92833500D01*
X150181000Y-92833500D02*
X152841000Y-92833500D01*
%TO.C,J1*%
D10*
X145609500Y-92045285D02*
X145609500Y-92581000D01*
X145573785Y-92688142D01*
X145502357Y-92759571D01*
X145395214Y-92795285D01*
X145323785Y-92795285D01*
X146359500Y-92795285D02*
X145930928Y-92795285D01*
X146145214Y-92795285D02*
X146145214Y-92045285D01*
X146073785Y-92152428D01*
X146002357Y-92223857D01*
X145930928Y-92259571D01*
%TO.C,S1*%
X156220594Y-90024260D02*
X156363451Y-90071879D01*
X156601546Y-90071879D01*
X156696784Y-90024260D01*
X156744403Y-89976641D01*
X156792022Y-89881403D01*
X156792022Y-89786165D01*
X156744403Y-89690927D01*
X156696784Y-89643308D01*
X156601546Y-89595689D01*
X156411070Y-89548070D01*
X156315832Y-89500451D01*
X156268213Y-89452832D01*
X156220594Y-89357594D01*
X156220594Y-89262356D01*
X156268213Y-89167118D01*
X156315832Y-89119499D01*
X156411070Y-89071879D01*
X156649165Y-89071879D01*
X156792022Y-89119499D01*
X157744403Y-90071879D02*
X157172975Y-90071879D01*
X157458689Y-90071879D02*
X157458689Y-89071879D01*
X157363451Y-89214737D01*
X157268213Y-89309975D01*
X157172975Y-89357594D01*
%TO.C,S2*%
X156195595Y-86207262D02*
X156338452Y-86254881D01*
X156576547Y-86254881D01*
X156671785Y-86207262D01*
X156719404Y-86159643D01*
X156767023Y-86064405D01*
X156767023Y-85969167D01*
X156719404Y-85873929D01*
X156671785Y-85826310D01*
X156576547Y-85778691D01*
X156386071Y-85731072D01*
X156290833Y-85683453D01*
X156243214Y-85635834D01*
X156195595Y-85540596D01*
X156195595Y-85445358D01*
X156243214Y-85350120D01*
X156290833Y-85302501D01*
X156386071Y-85254881D01*
X156624166Y-85254881D01*
X156767023Y-85302501D01*
X157147976Y-85350120D02*
X157195595Y-85302501D01*
X157290833Y-85254881D01*
X157528928Y-85254881D01*
X157624166Y-85302501D01*
X157671785Y-85350120D01*
X157719404Y-85445358D01*
X157719404Y-85540596D01*
X157671785Y-85683453D01*
X157100357Y-86254881D01*
X157719404Y-86254881D01*
%TO.C,J2*%
X154372500Y-92045285D02*
X154372500Y-92581000D01*
X154336785Y-92688142D01*
X154265357Y-92759571D01*
X154158214Y-92795285D01*
X154086785Y-92795285D01*
X154693928Y-92116714D02*
X154729642Y-92081000D01*
X154801071Y-92045285D01*
X154979642Y-92045285D01*
X155051071Y-92081000D01*
X155086785Y-92116714D01*
X155122500Y-92188142D01*
X155122500Y-92259571D01*
X155086785Y-92366714D01*
X154658214Y-92795285D01*
X155122500Y-92795285D01*
%TD*%
M02*
