%TF.GenerationSoftware,KiCad,Pcbnew,(5.1.6)-1*%
%TF.CreationDate,2025-01-10T10:33:32-05:00*%
%TF.ProjectId,full-can-programmer,66756c6c-2d63-4616-9e2d-70726f677261,rev?*%
%TF.SameCoordinates,Original*%
%TF.FileFunction,Legend,Bot*%
%TF.FilePolarity,Positive*%
%FSLAX46Y46*%
G04 Gerber Fmt 4.6, Leading zero omitted, Abs format (unit mm)*
G04 Created by KiCad (PCBNEW (5.1.6)-1) date 2025-01-10 10:33:32*
%MOMM*%
%LPD*%
G01*
G04 APERTURE LIST*
%ADD10C,0.125000*%
%ADD11C,0.150000*%
%ADD12C,0.120000*%
G04 APERTURE END LIST*
D10*
X160444690Y-85383976D02*
X160801833Y-85383976D01*
X160873261Y-85360166D01*
X160920880Y-85312547D01*
X160944690Y-85241119D01*
X160944690Y-85193500D01*
X160944690Y-85860166D02*
X160944690Y-85622071D01*
X160444690Y-85622071D01*
X160897071Y-86312547D02*
X160920880Y-86288738D01*
X160944690Y-86217309D01*
X160944690Y-86169690D01*
X160920880Y-86098261D01*
X160873261Y-86050642D01*
X160825642Y-86026833D01*
X160730404Y-86003023D01*
X160658976Y-86003023D01*
X160563738Y-86026833D01*
X160516119Y-86050642D01*
X160468500Y-86098261D01*
X160444690Y-86169690D01*
X160444690Y-86217309D01*
X160468500Y-86288738D01*
X160492309Y-86312547D01*
X160444690Y-86669690D02*
X160801833Y-86669690D01*
X160873261Y-86645880D01*
X160920880Y-86598261D01*
X160944690Y-86526833D01*
X160944690Y-86479214D01*
X160944690Y-87145880D02*
X160944690Y-86907785D01*
X160444690Y-86907785D01*
X160897071Y-87598261D02*
X160920880Y-87574452D01*
X160944690Y-87503023D01*
X160944690Y-87455404D01*
X160920880Y-87383976D01*
X160873261Y-87336357D01*
X160825642Y-87312547D01*
X160730404Y-87288738D01*
X160658976Y-87288738D01*
X160563738Y-87312547D01*
X160516119Y-87336357D01*
X160468500Y-87383976D01*
X160444690Y-87455404D01*
X160444690Y-87503023D01*
X160468500Y-87574452D01*
X160492309Y-87598261D01*
X160444690Y-87955404D02*
X160801833Y-87955404D01*
X160873261Y-87931595D01*
X160920880Y-87883976D01*
X160944690Y-87812547D01*
X160944690Y-87764928D01*
X160944690Y-88431595D02*
X160944690Y-88193500D01*
X160444690Y-88193500D01*
X160897071Y-88883976D02*
X160920880Y-88860166D01*
X160944690Y-88788738D01*
X160944690Y-88741119D01*
X160920880Y-88669690D01*
X160873261Y-88622071D01*
X160825642Y-88598261D01*
X160730404Y-88574452D01*
X160658976Y-88574452D01*
X160563738Y-88598261D01*
X160516119Y-88622071D01*
X160468500Y-88669690D01*
X160444690Y-88741119D01*
X160444690Y-88788738D01*
X160468500Y-88860166D01*
X160492309Y-88883976D01*
X160444690Y-89241119D02*
X160801833Y-89241119D01*
X160873261Y-89217309D01*
X160920880Y-89169690D01*
X160944690Y-89098261D01*
X160944690Y-89050642D01*
X160944690Y-89717309D02*
X160944690Y-89479214D01*
X160444690Y-89479214D01*
X160897071Y-90169690D02*
X160920880Y-90145880D01*
X160944690Y-90074452D01*
X160944690Y-90026833D01*
X160920880Y-89955404D01*
X160873261Y-89907785D01*
X160825642Y-89883976D01*
X160730404Y-89860166D01*
X160658976Y-89860166D01*
X160563738Y-89883976D01*
X160516119Y-89907785D01*
X160468500Y-89955404D01*
X160444690Y-90026833D01*
X160444690Y-90074452D01*
X160468500Y-90145880D01*
X160492309Y-90169690D01*
D11*
X149635785Y-84132000D02*
X150135785Y-84274857D01*
X149778642Y-84417714D01*
X150135785Y-84560571D01*
X149635785Y-84703428D01*
X150135785Y-84989142D02*
X149635785Y-84989142D01*
X149385785Y-84989142D02*
X149421500Y-84953428D01*
X149457214Y-84989142D01*
X149421500Y-85024857D01*
X149385785Y-84989142D01*
X149457214Y-84989142D01*
X150135785Y-85346285D02*
X149635785Y-85346285D01*
X149778642Y-85346285D02*
X149707214Y-85382000D01*
X149671500Y-85417714D01*
X149635785Y-85489142D01*
X149635785Y-85560571D01*
X150100071Y-86096285D02*
X150135785Y-86024857D01*
X150135785Y-85882000D01*
X150100071Y-85810571D01*
X150028642Y-85774857D01*
X149742928Y-85774857D01*
X149671500Y-85810571D01*
X149635785Y-85882000D01*
X149635785Y-86024857D01*
X149671500Y-86096285D01*
X149742928Y-86132000D01*
X149814357Y-86132000D01*
X149885785Y-85774857D01*
X149635785Y-86346285D02*
X149635785Y-86632000D01*
X149385785Y-86453428D02*
X150028642Y-86453428D01*
X150100071Y-86489142D01*
X150135785Y-86560571D01*
X150135785Y-86632000D01*
X150135785Y-87203428D02*
X149742928Y-87203428D01*
X149671500Y-87167714D01*
X149635785Y-87096285D01*
X149635785Y-86953428D01*
X149671500Y-86882000D01*
X150100071Y-87203428D02*
X150135785Y-87132000D01*
X150135785Y-86953428D01*
X150100071Y-86882000D01*
X150028642Y-86846285D01*
X149957214Y-86846285D01*
X149885785Y-86882000D01*
X149850071Y-86953428D01*
X149850071Y-87132000D01*
X149814357Y-87203428D01*
X149635785Y-87560571D02*
X150385785Y-87560571D01*
X149671500Y-87560571D02*
X149635785Y-87632000D01*
X149635785Y-87774857D01*
X149671500Y-87846285D01*
X149707214Y-87882000D01*
X149778642Y-87917714D01*
X149992928Y-87917714D01*
X150064357Y-87882000D01*
X150100071Y-87846285D01*
X150135785Y-87774857D01*
X150135785Y-87632000D01*
X150100071Y-87560571D01*
X149457214Y-88774857D02*
X149421500Y-88810571D01*
X149385785Y-88882000D01*
X149385785Y-89060571D01*
X149421500Y-89132000D01*
X149457214Y-89167714D01*
X149528642Y-89203428D01*
X149600071Y-89203428D01*
X149707214Y-89167714D01*
X150135785Y-88739142D01*
X150135785Y-89203428D01*
X149385785Y-89667714D02*
X149385785Y-89739142D01*
X149421500Y-89810571D01*
X149457214Y-89846285D01*
X149528642Y-89882000D01*
X149671500Y-89917714D01*
X149850071Y-89917714D01*
X149992928Y-89882000D01*
X150064357Y-89846285D01*
X150100071Y-89810571D01*
X150135785Y-89739142D01*
X150135785Y-89667714D01*
X150100071Y-89596285D01*
X150064357Y-89560571D01*
X149992928Y-89524857D01*
X149850071Y-89489142D01*
X149671500Y-89489142D01*
X149528642Y-89524857D01*
X149457214Y-89560571D01*
X149421500Y-89596285D01*
X149385785Y-89667714D01*
X149457214Y-90203428D02*
X149421500Y-90239142D01*
X149385785Y-90310571D01*
X149385785Y-90489142D01*
X149421500Y-90560571D01*
X149457214Y-90596285D01*
X149528642Y-90632000D01*
X149600071Y-90632000D01*
X149707214Y-90596285D01*
X150135785Y-90167714D01*
X150135785Y-90632000D01*
X149385785Y-91310571D02*
X149385785Y-90953428D01*
X149742928Y-90917714D01*
X149707214Y-90953428D01*
X149671500Y-91024857D01*
X149671500Y-91203428D01*
X149707214Y-91274857D01*
X149742928Y-91310571D01*
X149814357Y-91346285D01*
X149992928Y-91346285D01*
X150064357Y-91310571D01*
X150100071Y-91274857D01*
X150135785Y-91203428D01*
X150135785Y-91024857D01*
X150100071Y-90953428D01*
X150064357Y-90917714D01*
D12*
%TO.C,C1*%
X144578000Y-84955748D02*
X144578000Y-85478252D01*
X145998000Y-84955748D02*
X145998000Y-85478252D01*
D11*
%TO.C,U1*%
X161695500Y-90443500D02*
X161490500Y-90443500D01*
X161695500Y-84943500D02*
X161395500Y-84943500D01*
X156185500Y-84943500D02*
X156485500Y-84943500D01*
X156185500Y-90443500D02*
X156485500Y-90443500D01*
X161695500Y-90443500D02*
X161695500Y-84943500D01*
X156185500Y-90443500D02*
X156185500Y-84943500D01*
X161490500Y-90443500D02*
X161490500Y-92193500D01*
%TO.C,C1*%
X145413000Y-87952357D02*
X145448714Y-87988071D01*
X145555857Y-88023785D01*
X145627285Y-88023785D01*
X145734428Y-87988071D01*
X145805857Y-87916642D01*
X145841571Y-87845214D01*
X145877285Y-87702357D01*
X145877285Y-87595214D01*
X145841571Y-87452357D01*
X145805857Y-87380928D01*
X145734428Y-87309500D01*
X145627285Y-87273785D01*
X145555857Y-87273785D01*
X145448714Y-87309500D01*
X145413000Y-87345214D01*
X144698714Y-88023785D02*
X145127285Y-88023785D01*
X144913000Y-88023785D02*
X144913000Y-87273785D01*
X144984428Y-87380928D01*
X145055857Y-87452357D01*
X145127285Y-87488071D01*
%TO.C,U1*%
X162022285Y-87122071D02*
X162629428Y-87122071D01*
X162700857Y-87157785D01*
X162736571Y-87193500D01*
X162772285Y-87264928D01*
X162772285Y-87407785D01*
X162736571Y-87479214D01*
X162700857Y-87514928D01*
X162629428Y-87550642D01*
X162022285Y-87550642D01*
X162772285Y-88300642D02*
X162772285Y-87872071D01*
X162772285Y-88086357D02*
X162022285Y-88086357D01*
X162129428Y-88014928D01*
X162200857Y-87943500D01*
X162236571Y-87872071D01*
%TD*%
M02*
