%TF.GenerationSoftware,KiCad,Pcbnew,(5.1.6)-1*%
%TF.CreationDate,2025-01-09T16:49:13-05:00*%
%TF.ProjectId,full-can-programmer,66756c6c-2d63-4616-9e2d-70726f677261,rev?*%
%TF.SameCoordinates,Original*%
%TF.FileFunction,Copper,L1,Top*%
%TF.FilePolarity,Positive*%
%FSLAX46Y46*%
G04 Gerber Fmt 4.6, Leading zero omitted, Abs format (unit mm)*
G04 Created by KiCad (PCBNEW (5.1.6)-1) date 2025-01-09 16:49:13*
%MOMM*%
%LPD*%
G01*
G04 APERTURE LIST*
%TA.AperFunction,ComponentPad*%
%ADD10R,1.700000X1.700000*%
%TD*%
%TA.AperFunction,ComponentPad*%
%ADD11O,1.700000X1.700000*%
%TD*%
%TA.AperFunction,SMDPad,CuDef*%
%ADD12R,1.700000X0.800000*%
%TD*%
%TA.AperFunction,SMDPad,CuDef*%
%ADD13R,1.100000X0.800000*%
%TD*%
%TA.AperFunction,SMDPad,CuDef*%
%ADD14R,0.650000X1.700000*%
%TD*%
%TA.AperFunction,ViaPad*%
%ADD15C,0.800000*%
%TD*%
%TA.AperFunction,Conductor*%
%ADD16C,0.250000*%
%TD*%
%TA.AperFunction,Conductor*%
%ADD17C,0.254000*%
%TD*%
G04 APERTURE END LIST*
%TO.P,C1,1*%
%TO.N,/VIN*%
%TA.AperFunction,SMDPad,CuDef*%
G36*
G01*
X144774499Y-83435500D02*
X145674501Y-83435500D01*
G75*
G02*
X145924500Y-83685499I0J-249999D01*
G01*
X145924500Y-84335501D01*
G75*
G02*
X145674501Y-84585500I-249999J0D01*
G01*
X144774499Y-84585500D01*
G75*
G02*
X144524500Y-84335501I0J249999D01*
G01*
X144524500Y-83685499D01*
G75*
G02*
X144774499Y-83435500I249999J0D01*
G01*
G37*
%TD.AperFunction*%
%TO.P,C1,2*%
%TO.N,GND*%
%TA.AperFunction,SMDPad,CuDef*%
G36*
G01*
X144774499Y-85485500D02*
X145674501Y-85485500D01*
G75*
G02*
X145924500Y-85735499I0J-249999D01*
G01*
X145924500Y-86385501D01*
G75*
G02*
X145674501Y-86635500I-249999J0D01*
G01*
X144774499Y-86635500D01*
G75*
G02*
X144524500Y-86385501I0J249999D01*
G01*
X144524500Y-85735499D01*
G75*
G02*
X144774499Y-85485500I249999J0D01*
G01*
G37*
%TD.AperFunction*%
%TD*%
D10*
%TO.P,J1,1*%
%TO.N,/VIN*%
X148082000Y-83883500D03*
D11*
%TO.P,J1,2*%
%TO.N,GND*%
X148082000Y-86423500D03*
%TO.P,J1,3*%
%TO.N,/SCL_5V*%
X148082000Y-88963500D03*
%TO.P,J1,4*%
%TO.N,/SDA_5V*%
X148082000Y-91503500D03*
%TD*%
D12*
%TO.P,S1,1*%
%TO.N,GND*%
X160337500Y-86663000D03*
%TO.P,S1,2*%
%TO.N,/SW_A*%
X160337500Y-83263000D03*
D13*
%TO.P,S1,G1*%
%TO.N,GND*%
X161987500Y-84963000D03*
%TD*%
%TO.P,S2,G1*%
%TO.N,GND*%
X161987500Y-90360500D03*
D12*
%TO.P,S2,2*%
%TO.N,/SW_B*%
X160337500Y-88660500D03*
%TO.P,S2,1*%
%TO.N,GND*%
X160337500Y-92060500D03*
%TD*%
D14*
%TO.P,U1,1*%
%TO.N,N/C*%
X156019500Y-84107000D03*
%TO.P,U1,2*%
%TO.N,/SW_A*%
X154749500Y-84107000D03*
%TO.P,U1,3*%
%TO.N,/SW_B*%
X153479500Y-84107000D03*
%TO.P,U1,4*%
%TO.N,GND*%
X152209500Y-84107000D03*
%TO.P,U1,5*%
%TO.N,/SDA_5V*%
X152209500Y-91407000D03*
%TO.P,U1,6*%
%TO.N,N/C*%
X153479500Y-91407000D03*
%TO.P,U1,7*%
%TO.N,/SCL_5V*%
X154749500Y-91407000D03*
%TO.P,U1,8*%
%TO.N,/VIN*%
X156019500Y-91407000D03*
%TD*%
D15*
%TO.N,GND*%
X152908000Y-85915500D03*
%TD*%
D16*
%TO.N,/VIN*%
X147955000Y-84010500D02*
X148082000Y-83883500D01*
X145224500Y-84010500D02*
X147955000Y-84010500D01*
X156019500Y-90233500D02*
X156019500Y-91407000D01*
X148082000Y-83883500D02*
X149669500Y-83883500D01*
X149669500Y-83883500D02*
X156019500Y-90233500D01*
%TO.N,/SCL_5V*%
X154749500Y-90307000D02*
X154749500Y-91407000D01*
X153406000Y-88963500D02*
X154749500Y-90307000D01*
X148082000Y-88963500D02*
X153406000Y-88963500D01*
%TO.N,/SDA_5V*%
X152113000Y-91503500D02*
X152209500Y-91407000D01*
X148082000Y-91503500D02*
X152113000Y-91503500D01*
%TO.N,/SW_A*%
X154749500Y-85207000D02*
X155331000Y-85788500D01*
X154749500Y-84107000D02*
X154749500Y-85207000D01*
X155331000Y-85788500D02*
X157353000Y-85788500D01*
X159878500Y-83263000D02*
X160337500Y-83263000D01*
X157353000Y-85788500D02*
X159878500Y-83263000D01*
%TO.N,/SW_B*%
X156933000Y-88660500D02*
X160337500Y-88660500D01*
X153479500Y-85207000D02*
X156933000Y-88660500D01*
X153479500Y-84107000D02*
X153479500Y-85207000D01*
%TD*%
D17*
%TO.N,GND*%
G36*
X153415079Y-88409724D02*
G01*
X153406000Y-88408830D01*
X153378894Y-88411500D01*
X149235569Y-88411500D01*
X149213663Y-88358614D01*
X149073911Y-88149460D01*
X148896040Y-87971589D01*
X148686886Y-87831837D01*
X148454487Y-87735574D01*
X148207774Y-87686500D01*
X148105002Y-87686500D01*
X148105002Y-87593545D01*
X148304451Y-87680977D01*
X148545498Y-87613417D01*
X148768733Y-87500129D01*
X148965578Y-87345467D01*
X149128467Y-87155374D01*
X149251141Y-86937156D01*
X149328886Y-86699198D01*
X149339476Y-86645951D01*
X149252024Y-86446500D01*
X148105000Y-86446500D01*
X148105000Y-86466500D01*
X148059000Y-86466500D01*
X148059000Y-86446500D01*
X146911976Y-86446500D01*
X146824524Y-86645951D01*
X146835114Y-86699198D01*
X146912859Y-86937156D01*
X147035533Y-87155374D01*
X147198422Y-87345467D01*
X147395267Y-87500129D01*
X147618502Y-87613417D01*
X147859549Y-87680977D01*
X148058998Y-87593545D01*
X148058998Y-87686500D01*
X147956226Y-87686500D01*
X147709513Y-87735574D01*
X147477114Y-87831837D01*
X147267960Y-87971589D01*
X147090089Y-88149460D01*
X146950337Y-88358614D01*
X146854074Y-88591013D01*
X146805000Y-88837726D01*
X146805000Y-89089274D01*
X146854074Y-89335987D01*
X146950337Y-89568386D01*
X147090089Y-89777540D01*
X147267960Y-89955411D01*
X147477114Y-90095163D01*
X147709513Y-90191426D01*
X147921034Y-90233500D01*
X147709513Y-90275574D01*
X147477114Y-90371837D01*
X147267960Y-90511589D01*
X147090089Y-90689460D01*
X146950337Y-90898614D01*
X146854074Y-91131013D01*
X146805000Y-91377726D01*
X146805000Y-91629274D01*
X146854074Y-91875987D01*
X146950337Y-92108386D01*
X147090089Y-92317540D01*
X147267960Y-92495411D01*
X147477114Y-92635163D01*
X147639680Y-92702500D01*
X144470000Y-92702500D01*
X144470000Y-87059198D01*
X144524500Y-87064566D01*
X145094750Y-87062500D01*
X145201500Y-86955750D01*
X145201500Y-86083500D01*
X145247500Y-86083500D01*
X145247500Y-86955750D01*
X145354250Y-87062500D01*
X145924500Y-87064566D01*
X146008207Y-87056322D01*
X146088696Y-87031905D01*
X146162876Y-86992255D01*
X146227895Y-86938895D01*
X146281255Y-86873876D01*
X146320905Y-86799696D01*
X146345322Y-86719207D01*
X146353566Y-86635500D01*
X146351500Y-86190250D01*
X146244750Y-86083500D01*
X145247500Y-86083500D01*
X145201500Y-86083500D01*
X145181500Y-86083500D01*
X145181500Y-86037500D01*
X145201500Y-86037500D01*
X145201500Y-85165250D01*
X145247500Y-85165250D01*
X145247500Y-86037500D01*
X146244750Y-86037500D01*
X146351500Y-85930750D01*
X146353566Y-85485500D01*
X146345322Y-85401793D01*
X146320905Y-85321304D01*
X146281255Y-85247124D01*
X146227895Y-85182105D01*
X146162876Y-85128745D01*
X146088696Y-85089095D01*
X146008207Y-85064678D01*
X145924500Y-85056434D01*
X145354250Y-85058500D01*
X145247500Y-85165250D01*
X145201500Y-85165250D01*
X145094750Y-85058500D01*
X144524500Y-85056434D01*
X144470000Y-85061802D01*
X144470000Y-84939019D01*
X144514632Y-84962875D01*
X144642020Y-85001518D01*
X144774499Y-85014566D01*
X145674501Y-85014566D01*
X145806980Y-85001518D01*
X145934368Y-84962875D01*
X146051769Y-84900123D01*
X146154672Y-84815672D01*
X146239123Y-84712769D01*
X146301875Y-84595368D01*
X146311845Y-84562500D01*
X146802934Y-84562500D01*
X146802934Y-84733500D01*
X146811178Y-84817207D01*
X146835595Y-84897696D01*
X146875245Y-84971876D01*
X146928605Y-85036895D01*
X146993624Y-85090255D01*
X147067804Y-85129905D01*
X147148293Y-85154322D01*
X147232000Y-85162566D01*
X148058998Y-85162566D01*
X148058998Y-85253455D01*
X147859549Y-85166023D01*
X147618502Y-85233583D01*
X147395267Y-85346871D01*
X147198422Y-85501533D01*
X147035533Y-85691626D01*
X146912859Y-85909844D01*
X146835114Y-86147802D01*
X146824524Y-86201049D01*
X146911976Y-86400500D01*
X148059000Y-86400500D01*
X148059000Y-86380500D01*
X148105000Y-86380500D01*
X148105000Y-86400500D01*
X149252024Y-86400500D01*
X149339476Y-86201049D01*
X149328886Y-86147802D01*
X149251141Y-85909844D01*
X149128467Y-85691626D01*
X148965578Y-85501533D01*
X148768733Y-85346871D01*
X148545498Y-85233583D01*
X148304451Y-85166023D01*
X148105002Y-85253455D01*
X148105002Y-85162566D01*
X148932000Y-85162566D01*
X149015707Y-85154322D01*
X149096196Y-85129905D01*
X149170376Y-85090255D01*
X149235395Y-85036895D01*
X149288755Y-84971876D01*
X149328405Y-84897696D01*
X149352822Y-84817207D01*
X149361066Y-84733500D01*
X149361066Y-84435500D01*
X149440856Y-84435500D01*
X153415079Y-88409724D01*
G37*
X153415079Y-88409724D02*
X153406000Y-88408830D01*
X153378894Y-88411500D01*
X149235569Y-88411500D01*
X149213663Y-88358614D01*
X149073911Y-88149460D01*
X148896040Y-87971589D01*
X148686886Y-87831837D01*
X148454487Y-87735574D01*
X148207774Y-87686500D01*
X148105002Y-87686500D01*
X148105002Y-87593545D01*
X148304451Y-87680977D01*
X148545498Y-87613417D01*
X148768733Y-87500129D01*
X148965578Y-87345467D01*
X149128467Y-87155374D01*
X149251141Y-86937156D01*
X149328886Y-86699198D01*
X149339476Y-86645951D01*
X149252024Y-86446500D01*
X148105000Y-86446500D01*
X148105000Y-86466500D01*
X148059000Y-86466500D01*
X148059000Y-86446500D01*
X146911976Y-86446500D01*
X146824524Y-86645951D01*
X146835114Y-86699198D01*
X146912859Y-86937156D01*
X147035533Y-87155374D01*
X147198422Y-87345467D01*
X147395267Y-87500129D01*
X147618502Y-87613417D01*
X147859549Y-87680977D01*
X148058998Y-87593545D01*
X148058998Y-87686500D01*
X147956226Y-87686500D01*
X147709513Y-87735574D01*
X147477114Y-87831837D01*
X147267960Y-87971589D01*
X147090089Y-88149460D01*
X146950337Y-88358614D01*
X146854074Y-88591013D01*
X146805000Y-88837726D01*
X146805000Y-89089274D01*
X146854074Y-89335987D01*
X146950337Y-89568386D01*
X147090089Y-89777540D01*
X147267960Y-89955411D01*
X147477114Y-90095163D01*
X147709513Y-90191426D01*
X147921034Y-90233500D01*
X147709513Y-90275574D01*
X147477114Y-90371837D01*
X147267960Y-90511589D01*
X147090089Y-90689460D01*
X146950337Y-90898614D01*
X146854074Y-91131013D01*
X146805000Y-91377726D01*
X146805000Y-91629274D01*
X146854074Y-91875987D01*
X146950337Y-92108386D01*
X147090089Y-92317540D01*
X147267960Y-92495411D01*
X147477114Y-92635163D01*
X147639680Y-92702500D01*
X144470000Y-92702500D01*
X144470000Y-87059198D01*
X144524500Y-87064566D01*
X145094750Y-87062500D01*
X145201500Y-86955750D01*
X145201500Y-86083500D01*
X145247500Y-86083500D01*
X145247500Y-86955750D01*
X145354250Y-87062500D01*
X145924500Y-87064566D01*
X146008207Y-87056322D01*
X146088696Y-87031905D01*
X146162876Y-86992255D01*
X146227895Y-86938895D01*
X146281255Y-86873876D01*
X146320905Y-86799696D01*
X146345322Y-86719207D01*
X146353566Y-86635500D01*
X146351500Y-86190250D01*
X146244750Y-86083500D01*
X145247500Y-86083500D01*
X145201500Y-86083500D01*
X145181500Y-86083500D01*
X145181500Y-86037500D01*
X145201500Y-86037500D01*
X145201500Y-85165250D01*
X145247500Y-85165250D01*
X145247500Y-86037500D01*
X146244750Y-86037500D01*
X146351500Y-85930750D01*
X146353566Y-85485500D01*
X146345322Y-85401793D01*
X146320905Y-85321304D01*
X146281255Y-85247124D01*
X146227895Y-85182105D01*
X146162876Y-85128745D01*
X146088696Y-85089095D01*
X146008207Y-85064678D01*
X145924500Y-85056434D01*
X145354250Y-85058500D01*
X145247500Y-85165250D01*
X145201500Y-85165250D01*
X145094750Y-85058500D01*
X144524500Y-85056434D01*
X144470000Y-85061802D01*
X144470000Y-84939019D01*
X144514632Y-84962875D01*
X144642020Y-85001518D01*
X144774499Y-85014566D01*
X145674501Y-85014566D01*
X145806980Y-85001518D01*
X145934368Y-84962875D01*
X146051769Y-84900123D01*
X146154672Y-84815672D01*
X146239123Y-84712769D01*
X146301875Y-84595368D01*
X146311845Y-84562500D01*
X146802934Y-84562500D01*
X146802934Y-84733500D01*
X146811178Y-84817207D01*
X146835595Y-84897696D01*
X146875245Y-84971876D01*
X146928605Y-85036895D01*
X146993624Y-85090255D01*
X147067804Y-85129905D01*
X147148293Y-85154322D01*
X147232000Y-85162566D01*
X148058998Y-85162566D01*
X148058998Y-85253455D01*
X147859549Y-85166023D01*
X147618502Y-85233583D01*
X147395267Y-85346871D01*
X147198422Y-85501533D01*
X147035533Y-85691626D01*
X146912859Y-85909844D01*
X146835114Y-86147802D01*
X146824524Y-86201049D01*
X146911976Y-86400500D01*
X148059000Y-86400500D01*
X148059000Y-86380500D01*
X148105000Y-86380500D01*
X148105000Y-86400500D01*
X149252024Y-86400500D01*
X149339476Y-86201049D01*
X149328886Y-86147802D01*
X149251141Y-85909844D01*
X149128467Y-85691626D01*
X148965578Y-85501533D01*
X148768733Y-85346871D01*
X148545498Y-85233583D01*
X148304451Y-85166023D01*
X148105002Y-85253455D01*
X148105002Y-85162566D01*
X148932000Y-85162566D01*
X149015707Y-85154322D01*
X149096196Y-85129905D01*
X149170376Y-85090255D01*
X149235395Y-85036895D01*
X149288755Y-84971876D01*
X149328405Y-84897696D01*
X149352822Y-84817207D01*
X149361066Y-84733500D01*
X149361066Y-84435500D01*
X149440856Y-84435500D01*
X153415079Y-88409724D01*
G36*
X159091095Y-82698804D02*
G01*
X159066678Y-82779293D01*
X159058434Y-82863000D01*
X159058434Y-83302420D01*
X157124356Y-85236500D01*
X156667505Y-85236500D01*
X156701255Y-85195376D01*
X156740905Y-85121196D01*
X156765322Y-85040707D01*
X156773566Y-84957000D01*
X156773566Y-83257000D01*
X156765322Y-83173293D01*
X156740905Y-83092804D01*
X156701255Y-83018624D01*
X156647895Y-82953605D01*
X156582876Y-82900245D01*
X156508696Y-82860595D01*
X156428207Y-82836178D01*
X156344500Y-82827934D01*
X155694500Y-82827934D01*
X155610793Y-82836178D01*
X155530304Y-82860595D01*
X155456124Y-82900245D01*
X155391105Y-82953605D01*
X155384500Y-82961653D01*
X155377895Y-82953605D01*
X155312876Y-82900245D01*
X155238696Y-82860595D01*
X155158207Y-82836178D01*
X155074500Y-82827934D01*
X154424500Y-82827934D01*
X154340793Y-82836178D01*
X154260304Y-82860595D01*
X154186124Y-82900245D01*
X154121105Y-82953605D01*
X154114500Y-82961653D01*
X154107895Y-82953605D01*
X154042876Y-82900245D01*
X153968696Y-82860595D01*
X153888207Y-82836178D01*
X153804500Y-82827934D01*
X153154500Y-82827934D01*
X153070793Y-82836178D01*
X152990304Y-82860595D01*
X152916124Y-82900245D01*
X152851105Y-82953605D01*
X152844500Y-82961653D01*
X152837895Y-82953605D01*
X152772876Y-82900245D01*
X152698696Y-82860595D01*
X152618207Y-82836178D01*
X152534500Y-82827934D01*
X152339250Y-82830000D01*
X152232500Y-82936750D01*
X152232500Y-84084000D01*
X152252500Y-84084000D01*
X152252500Y-84130000D01*
X152232500Y-84130000D01*
X152232500Y-85277250D01*
X152339250Y-85384000D01*
X152534500Y-85386066D01*
X152618207Y-85377822D01*
X152698696Y-85353405D01*
X152772876Y-85313755D01*
X152837895Y-85260395D01*
X152844500Y-85252347D01*
X152851105Y-85260395D01*
X152916124Y-85313755D01*
X152938709Y-85325827D01*
X152939159Y-85327309D01*
X152967052Y-85419262D01*
X152967053Y-85419263D01*
X153018310Y-85515158D01*
X153087290Y-85599211D01*
X153108352Y-85616496D01*
X156523508Y-89031654D01*
X156540789Y-89052711D01*
X156561845Y-89069991D01*
X156561846Y-89069992D01*
X156624842Y-89121691D01*
X156720737Y-89172948D01*
X156824789Y-89204512D01*
X156933000Y-89215170D01*
X156960108Y-89212500D01*
X159087395Y-89212500D01*
X159091095Y-89224696D01*
X159130745Y-89298876D01*
X159184105Y-89363895D01*
X159249124Y-89417255D01*
X159323304Y-89456905D01*
X159403793Y-89481322D01*
X159487500Y-89489566D01*
X161187500Y-89489566D01*
X161271207Y-89481322D01*
X161351696Y-89456905D01*
X161425876Y-89417255D01*
X161490895Y-89363895D01*
X161544255Y-89298876D01*
X161583905Y-89224696D01*
X161608322Y-89144207D01*
X161616566Y-89060500D01*
X161616566Y-88260500D01*
X161608322Y-88176793D01*
X161583905Y-88096304D01*
X161544255Y-88022124D01*
X161490895Y-87957105D01*
X161425876Y-87903745D01*
X161351696Y-87864095D01*
X161271207Y-87839678D01*
X161187500Y-87831434D01*
X159487500Y-87831434D01*
X159403793Y-87839678D01*
X159323304Y-87864095D01*
X159249124Y-87903745D01*
X159184105Y-87957105D01*
X159130745Y-88022124D01*
X159091095Y-88096304D01*
X159087395Y-88108500D01*
X157161646Y-88108500D01*
X156116146Y-87063000D01*
X159058434Y-87063000D01*
X159066678Y-87146707D01*
X159091095Y-87227196D01*
X159130745Y-87301376D01*
X159184105Y-87366395D01*
X159249124Y-87419755D01*
X159323304Y-87459405D01*
X159403793Y-87483822D01*
X159487500Y-87492066D01*
X160207750Y-87490000D01*
X160314500Y-87383250D01*
X160314500Y-86686000D01*
X160360500Y-86686000D01*
X160360500Y-87383250D01*
X160467250Y-87490000D01*
X161187500Y-87492066D01*
X161271207Y-87483822D01*
X161351696Y-87459405D01*
X161425876Y-87419755D01*
X161490895Y-87366395D01*
X161544255Y-87301376D01*
X161583905Y-87227196D01*
X161608322Y-87146707D01*
X161616566Y-87063000D01*
X161614500Y-86792750D01*
X161507750Y-86686000D01*
X160360500Y-86686000D01*
X160314500Y-86686000D01*
X159167250Y-86686000D01*
X159060500Y-86792750D01*
X159058434Y-87063000D01*
X156116146Y-87063000D01*
X155393645Y-86340500D01*
X157325894Y-86340500D01*
X157353000Y-86343170D01*
X157380106Y-86340500D01*
X157380109Y-86340500D01*
X157461211Y-86332512D01*
X157565263Y-86300948D01*
X157636258Y-86263000D01*
X159058434Y-86263000D01*
X159060500Y-86533250D01*
X159167250Y-86640000D01*
X160314500Y-86640000D01*
X160314500Y-85942750D01*
X160360500Y-85942750D01*
X160360500Y-86640000D01*
X161507750Y-86640000D01*
X161614500Y-86533250D01*
X161616566Y-86263000D01*
X161608322Y-86179293D01*
X161583905Y-86098804D01*
X161544255Y-86024624D01*
X161490895Y-85959605D01*
X161425876Y-85906245D01*
X161351696Y-85866595D01*
X161271207Y-85842178D01*
X161187500Y-85833934D01*
X160467250Y-85836000D01*
X160360500Y-85942750D01*
X160314500Y-85942750D01*
X160207750Y-85836000D01*
X159487500Y-85833934D01*
X159403793Y-85842178D01*
X159323304Y-85866595D01*
X159249124Y-85906245D01*
X159184105Y-85959605D01*
X159130745Y-86024624D01*
X159091095Y-86098804D01*
X159066678Y-86179293D01*
X159058434Y-86263000D01*
X157636258Y-86263000D01*
X157661158Y-86249691D01*
X157745211Y-86180711D01*
X157762500Y-86159644D01*
X158559144Y-85363000D01*
X161008434Y-85363000D01*
X161016678Y-85446707D01*
X161041095Y-85527196D01*
X161080745Y-85601376D01*
X161134105Y-85666395D01*
X161199124Y-85719755D01*
X161273304Y-85759405D01*
X161353793Y-85783822D01*
X161437500Y-85792066D01*
X161857750Y-85790000D01*
X161964500Y-85683250D01*
X161964500Y-84986000D01*
X161117250Y-84986000D01*
X161010500Y-85092750D01*
X161008434Y-85363000D01*
X158559144Y-85363000D01*
X159359145Y-84563000D01*
X161008434Y-84563000D01*
X161010500Y-84833250D01*
X161117250Y-84940000D01*
X161964500Y-84940000D01*
X161964500Y-84242750D01*
X161857750Y-84136000D01*
X161437500Y-84133934D01*
X161353793Y-84142178D01*
X161273304Y-84166595D01*
X161199124Y-84206245D01*
X161134105Y-84259605D01*
X161080745Y-84324624D01*
X161041095Y-84398804D01*
X161016678Y-84479293D01*
X161008434Y-84563000D01*
X159359145Y-84563000D01*
X159830080Y-84092066D01*
X161187500Y-84092066D01*
X161271207Y-84083822D01*
X161351696Y-84059405D01*
X161425876Y-84019755D01*
X161490895Y-83966395D01*
X161544255Y-83901376D01*
X161583905Y-83827196D01*
X161608322Y-83746707D01*
X161616566Y-83663000D01*
X161616566Y-82863000D01*
X161608322Y-82779293D01*
X161583905Y-82698804D01*
X161576259Y-82684500D01*
X162283894Y-82684500D01*
X162341126Y-82690111D01*
X162374908Y-82700311D01*
X162406071Y-82716881D01*
X162433421Y-82739187D01*
X162455918Y-82766381D01*
X162472702Y-82797424D01*
X162483138Y-82831137D01*
X162489000Y-82886904D01*
X162489000Y-84134172D01*
X162117250Y-84136000D01*
X162010500Y-84242750D01*
X162010500Y-84940000D01*
X162030500Y-84940000D01*
X162030500Y-84986000D01*
X162010500Y-84986000D01*
X162010500Y-85683250D01*
X162117250Y-85790000D01*
X162489000Y-85791828D01*
X162489001Y-89531672D01*
X162117250Y-89533500D01*
X162010500Y-89640250D01*
X162010500Y-90337500D01*
X162030500Y-90337500D01*
X162030500Y-90383500D01*
X162010500Y-90383500D01*
X162010500Y-91080750D01*
X162117250Y-91187500D01*
X162489001Y-91189328D01*
X162489001Y-92497384D01*
X162483389Y-92554627D01*
X162473189Y-92588409D01*
X162456619Y-92619571D01*
X162434313Y-92646921D01*
X162407121Y-92669416D01*
X162376077Y-92686202D01*
X162342362Y-92696638D01*
X162286596Y-92702500D01*
X161541281Y-92702500D01*
X161544255Y-92698876D01*
X161583905Y-92624696D01*
X161608322Y-92544207D01*
X161616566Y-92460500D01*
X161614500Y-92190250D01*
X161507750Y-92083500D01*
X160360500Y-92083500D01*
X160360500Y-92103500D01*
X160314500Y-92103500D01*
X160314500Y-92083500D01*
X159167250Y-92083500D01*
X159060500Y-92190250D01*
X159058434Y-92460500D01*
X159066678Y-92544207D01*
X159091095Y-92624696D01*
X159130745Y-92698876D01*
X159133719Y-92702500D01*
X148524320Y-92702500D01*
X148686886Y-92635163D01*
X148896040Y-92495411D01*
X149073911Y-92317540D01*
X149213663Y-92108386D01*
X149235569Y-92055500D01*
X151455434Y-92055500D01*
X151455434Y-92257000D01*
X151463678Y-92340707D01*
X151488095Y-92421196D01*
X151527745Y-92495376D01*
X151581105Y-92560395D01*
X151646124Y-92613755D01*
X151720304Y-92653405D01*
X151800793Y-92677822D01*
X151884500Y-92686066D01*
X152534500Y-92686066D01*
X152618207Y-92677822D01*
X152698696Y-92653405D01*
X152772876Y-92613755D01*
X152837895Y-92560395D01*
X152844500Y-92552347D01*
X152851105Y-92560395D01*
X152916124Y-92613755D01*
X152990304Y-92653405D01*
X153070793Y-92677822D01*
X153154500Y-92686066D01*
X153804500Y-92686066D01*
X153888207Y-92677822D01*
X153968696Y-92653405D01*
X154042876Y-92613755D01*
X154107895Y-92560395D01*
X154114500Y-92552347D01*
X154121105Y-92560395D01*
X154186124Y-92613755D01*
X154260304Y-92653405D01*
X154340793Y-92677822D01*
X154424500Y-92686066D01*
X155074500Y-92686066D01*
X155158207Y-92677822D01*
X155238696Y-92653405D01*
X155312876Y-92613755D01*
X155377895Y-92560395D01*
X155384500Y-92552347D01*
X155391105Y-92560395D01*
X155456124Y-92613755D01*
X155530304Y-92653405D01*
X155610793Y-92677822D01*
X155694500Y-92686066D01*
X156344500Y-92686066D01*
X156428207Y-92677822D01*
X156508696Y-92653405D01*
X156582876Y-92613755D01*
X156647895Y-92560395D01*
X156701255Y-92495376D01*
X156740905Y-92421196D01*
X156765322Y-92340707D01*
X156773566Y-92257000D01*
X156773566Y-91660500D01*
X159058434Y-91660500D01*
X159060500Y-91930750D01*
X159167250Y-92037500D01*
X160314500Y-92037500D01*
X160314500Y-91340250D01*
X160360500Y-91340250D01*
X160360500Y-92037500D01*
X161507750Y-92037500D01*
X161614500Y-91930750D01*
X161616566Y-91660500D01*
X161608322Y-91576793D01*
X161583905Y-91496304D01*
X161544255Y-91422124D01*
X161490895Y-91357105D01*
X161425876Y-91303745D01*
X161351696Y-91264095D01*
X161271207Y-91239678D01*
X161187500Y-91231434D01*
X160467250Y-91233500D01*
X160360500Y-91340250D01*
X160314500Y-91340250D01*
X160207750Y-91233500D01*
X159487500Y-91231434D01*
X159403793Y-91239678D01*
X159323304Y-91264095D01*
X159249124Y-91303745D01*
X159184105Y-91357105D01*
X159130745Y-91422124D01*
X159091095Y-91496304D01*
X159066678Y-91576793D01*
X159058434Y-91660500D01*
X156773566Y-91660500D01*
X156773566Y-90760500D01*
X161008434Y-90760500D01*
X161016678Y-90844207D01*
X161041095Y-90924696D01*
X161080745Y-90998876D01*
X161134105Y-91063895D01*
X161199124Y-91117255D01*
X161273304Y-91156905D01*
X161353793Y-91181322D01*
X161437500Y-91189566D01*
X161857750Y-91187500D01*
X161964500Y-91080750D01*
X161964500Y-90383500D01*
X161117250Y-90383500D01*
X161010500Y-90490250D01*
X161008434Y-90760500D01*
X156773566Y-90760500D01*
X156773566Y-90557000D01*
X156765322Y-90473293D01*
X156740905Y-90392804D01*
X156701255Y-90318624D01*
X156647895Y-90253605D01*
X156582876Y-90200245D01*
X156570229Y-90193485D01*
X156563512Y-90125289D01*
X156531948Y-90021237D01*
X156499484Y-89960500D01*
X161008434Y-89960500D01*
X161010500Y-90230750D01*
X161117250Y-90337500D01*
X161964500Y-90337500D01*
X161964500Y-89640250D01*
X161857750Y-89533500D01*
X161437500Y-89531434D01*
X161353793Y-89539678D01*
X161273304Y-89564095D01*
X161199124Y-89603745D01*
X161134105Y-89657105D01*
X161080745Y-89722124D01*
X161041095Y-89796304D01*
X161016678Y-89876793D01*
X161008434Y-89960500D01*
X156499484Y-89960500D01*
X156480691Y-89925342D01*
X156411711Y-89841289D01*
X156390654Y-89824008D01*
X151951996Y-85385352D01*
X152079750Y-85384000D01*
X152186500Y-85277250D01*
X152186500Y-84130000D01*
X151564250Y-84130000D01*
X151457500Y-84236750D01*
X151455629Y-84888985D01*
X150079001Y-83512357D01*
X150061711Y-83491289D01*
X149977658Y-83422309D01*
X149881763Y-83371052D01*
X149777711Y-83339488D01*
X149696609Y-83331500D01*
X149696606Y-83331500D01*
X149669500Y-83328830D01*
X149642394Y-83331500D01*
X149361066Y-83331500D01*
X149361066Y-83257000D01*
X151455434Y-83257000D01*
X151457500Y-83977250D01*
X151564250Y-84084000D01*
X152186500Y-84084000D01*
X152186500Y-82936750D01*
X152079750Y-82830000D01*
X151884500Y-82827934D01*
X151800793Y-82836178D01*
X151720304Y-82860595D01*
X151646124Y-82900245D01*
X151581105Y-82953605D01*
X151527745Y-83018624D01*
X151488095Y-83092804D01*
X151463678Y-83173293D01*
X151455434Y-83257000D01*
X149361066Y-83257000D01*
X149361066Y-83033500D01*
X149352822Y-82949793D01*
X149328405Y-82869304D01*
X149288755Y-82795124D01*
X149235395Y-82730105D01*
X149179825Y-82684500D01*
X159098741Y-82684500D01*
X159091095Y-82698804D01*
G37*
X159091095Y-82698804D02*
X159066678Y-82779293D01*
X159058434Y-82863000D01*
X159058434Y-83302420D01*
X157124356Y-85236500D01*
X156667505Y-85236500D01*
X156701255Y-85195376D01*
X156740905Y-85121196D01*
X156765322Y-85040707D01*
X156773566Y-84957000D01*
X156773566Y-83257000D01*
X156765322Y-83173293D01*
X156740905Y-83092804D01*
X156701255Y-83018624D01*
X156647895Y-82953605D01*
X156582876Y-82900245D01*
X156508696Y-82860595D01*
X156428207Y-82836178D01*
X156344500Y-82827934D01*
X155694500Y-82827934D01*
X155610793Y-82836178D01*
X155530304Y-82860595D01*
X155456124Y-82900245D01*
X155391105Y-82953605D01*
X155384500Y-82961653D01*
X155377895Y-82953605D01*
X155312876Y-82900245D01*
X155238696Y-82860595D01*
X155158207Y-82836178D01*
X155074500Y-82827934D01*
X154424500Y-82827934D01*
X154340793Y-82836178D01*
X154260304Y-82860595D01*
X154186124Y-82900245D01*
X154121105Y-82953605D01*
X154114500Y-82961653D01*
X154107895Y-82953605D01*
X154042876Y-82900245D01*
X153968696Y-82860595D01*
X153888207Y-82836178D01*
X153804500Y-82827934D01*
X153154500Y-82827934D01*
X153070793Y-82836178D01*
X152990304Y-82860595D01*
X152916124Y-82900245D01*
X152851105Y-82953605D01*
X152844500Y-82961653D01*
X152837895Y-82953605D01*
X152772876Y-82900245D01*
X152698696Y-82860595D01*
X152618207Y-82836178D01*
X152534500Y-82827934D01*
X152339250Y-82830000D01*
X152232500Y-82936750D01*
X152232500Y-84084000D01*
X152252500Y-84084000D01*
X152252500Y-84130000D01*
X152232500Y-84130000D01*
X152232500Y-85277250D01*
X152339250Y-85384000D01*
X152534500Y-85386066D01*
X152618207Y-85377822D01*
X152698696Y-85353405D01*
X152772876Y-85313755D01*
X152837895Y-85260395D01*
X152844500Y-85252347D01*
X152851105Y-85260395D01*
X152916124Y-85313755D01*
X152938709Y-85325827D01*
X152939159Y-85327309D01*
X152967052Y-85419262D01*
X152967053Y-85419263D01*
X153018310Y-85515158D01*
X153087290Y-85599211D01*
X153108352Y-85616496D01*
X156523508Y-89031654D01*
X156540789Y-89052711D01*
X156561845Y-89069991D01*
X156561846Y-89069992D01*
X156624842Y-89121691D01*
X156720737Y-89172948D01*
X156824789Y-89204512D01*
X156933000Y-89215170D01*
X156960108Y-89212500D01*
X159087395Y-89212500D01*
X159091095Y-89224696D01*
X159130745Y-89298876D01*
X159184105Y-89363895D01*
X159249124Y-89417255D01*
X159323304Y-89456905D01*
X159403793Y-89481322D01*
X159487500Y-89489566D01*
X161187500Y-89489566D01*
X161271207Y-89481322D01*
X161351696Y-89456905D01*
X161425876Y-89417255D01*
X161490895Y-89363895D01*
X161544255Y-89298876D01*
X161583905Y-89224696D01*
X161608322Y-89144207D01*
X161616566Y-89060500D01*
X161616566Y-88260500D01*
X161608322Y-88176793D01*
X161583905Y-88096304D01*
X161544255Y-88022124D01*
X161490895Y-87957105D01*
X161425876Y-87903745D01*
X161351696Y-87864095D01*
X161271207Y-87839678D01*
X161187500Y-87831434D01*
X159487500Y-87831434D01*
X159403793Y-87839678D01*
X159323304Y-87864095D01*
X159249124Y-87903745D01*
X159184105Y-87957105D01*
X159130745Y-88022124D01*
X159091095Y-88096304D01*
X159087395Y-88108500D01*
X157161646Y-88108500D01*
X156116146Y-87063000D01*
X159058434Y-87063000D01*
X159066678Y-87146707D01*
X159091095Y-87227196D01*
X159130745Y-87301376D01*
X159184105Y-87366395D01*
X159249124Y-87419755D01*
X159323304Y-87459405D01*
X159403793Y-87483822D01*
X159487500Y-87492066D01*
X160207750Y-87490000D01*
X160314500Y-87383250D01*
X160314500Y-86686000D01*
X160360500Y-86686000D01*
X160360500Y-87383250D01*
X160467250Y-87490000D01*
X161187500Y-87492066D01*
X161271207Y-87483822D01*
X161351696Y-87459405D01*
X161425876Y-87419755D01*
X161490895Y-87366395D01*
X161544255Y-87301376D01*
X161583905Y-87227196D01*
X161608322Y-87146707D01*
X161616566Y-87063000D01*
X161614500Y-86792750D01*
X161507750Y-86686000D01*
X160360500Y-86686000D01*
X160314500Y-86686000D01*
X159167250Y-86686000D01*
X159060500Y-86792750D01*
X159058434Y-87063000D01*
X156116146Y-87063000D01*
X155393645Y-86340500D01*
X157325894Y-86340500D01*
X157353000Y-86343170D01*
X157380106Y-86340500D01*
X157380109Y-86340500D01*
X157461211Y-86332512D01*
X157565263Y-86300948D01*
X157636258Y-86263000D01*
X159058434Y-86263000D01*
X159060500Y-86533250D01*
X159167250Y-86640000D01*
X160314500Y-86640000D01*
X160314500Y-85942750D01*
X160360500Y-85942750D01*
X160360500Y-86640000D01*
X161507750Y-86640000D01*
X161614500Y-86533250D01*
X161616566Y-86263000D01*
X161608322Y-86179293D01*
X161583905Y-86098804D01*
X161544255Y-86024624D01*
X161490895Y-85959605D01*
X161425876Y-85906245D01*
X161351696Y-85866595D01*
X161271207Y-85842178D01*
X161187500Y-85833934D01*
X160467250Y-85836000D01*
X160360500Y-85942750D01*
X160314500Y-85942750D01*
X160207750Y-85836000D01*
X159487500Y-85833934D01*
X159403793Y-85842178D01*
X159323304Y-85866595D01*
X159249124Y-85906245D01*
X159184105Y-85959605D01*
X159130745Y-86024624D01*
X159091095Y-86098804D01*
X159066678Y-86179293D01*
X159058434Y-86263000D01*
X157636258Y-86263000D01*
X157661158Y-86249691D01*
X157745211Y-86180711D01*
X157762500Y-86159644D01*
X158559144Y-85363000D01*
X161008434Y-85363000D01*
X161016678Y-85446707D01*
X161041095Y-85527196D01*
X161080745Y-85601376D01*
X161134105Y-85666395D01*
X161199124Y-85719755D01*
X161273304Y-85759405D01*
X161353793Y-85783822D01*
X161437500Y-85792066D01*
X161857750Y-85790000D01*
X161964500Y-85683250D01*
X161964500Y-84986000D01*
X161117250Y-84986000D01*
X161010500Y-85092750D01*
X161008434Y-85363000D01*
X158559144Y-85363000D01*
X159359145Y-84563000D01*
X161008434Y-84563000D01*
X161010500Y-84833250D01*
X161117250Y-84940000D01*
X161964500Y-84940000D01*
X161964500Y-84242750D01*
X161857750Y-84136000D01*
X161437500Y-84133934D01*
X161353793Y-84142178D01*
X161273304Y-84166595D01*
X161199124Y-84206245D01*
X161134105Y-84259605D01*
X161080745Y-84324624D01*
X161041095Y-84398804D01*
X161016678Y-84479293D01*
X161008434Y-84563000D01*
X159359145Y-84563000D01*
X159830080Y-84092066D01*
X161187500Y-84092066D01*
X161271207Y-84083822D01*
X161351696Y-84059405D01*
X161425876Y-84019755D01*
X161490895Y-83966395D01*
X161544255Y-83901376D01*
X161583905Y-83827196D01*
X161608322Y-83746707D01*
X161616566Y-83663000D01*
X161616566Y-82863000D01*
X161608322Y-82779293D01*
X161583905Y-82698804D01*
X161576259Y-82684500D01*
X162283894Y-82684500D01*
X162341126Y-82690111D01*
X162374908Y-82700311D01*
X162406071Y-82716881D01*
X162433421Y-82739187D01*
X162455918Y-82766381D01*
X162472702Y-82797424D01*
X162483138Y-82831137D01*
X162489000Y-82886904D01*
X162489000Y-84134172D01*
X162117250Y-84136000D01*
X162010500Y-84242750D01*
X162010500Y-84940000D01*
X162030500Y-84940000D01*
X162030500Y-84986000D01*
X162010500Y-84986000D01*
X162010500Y-85683250D01*
X162117250Y-85790000D01*
X162489000Y-85791828D01*
X162489001Y-89531672D01*
X162117250Y-89533500D01*
X162010500Y-89640250D01*
X162010500Y-90337500D01*
X162030500Y-90337500D01*
X162030500Y-90383500D01*
X162010500Y-90383500D01*
X162010500Y-91080750D01*
X162117250Y-91187500D01*
X162489001Y-91189328D01*
X162489001Y-92497384D01*
X162483389Y-92554627D01*
X162473189Y-92588409D01*
X162456619Y-92619571D01*
X162434313Y-92646921D01*
X162407121Y-92669416D01*
X162376077Y-92686202D01*
X162342362Y-92696638D01*
X162286596Y-92702500D01*
X161541281Y-92702500D01*
X161544255Y-92698876D01*
X161583905Y-92624696D01*
X161608322Y-92544207D01*
X161616566Y-92460500D01*
X161614500Y-92190250D01*
X161507750Y-92083500D01*
X160360500Y-92083500D01*
X160360500Y-92103500D01*
X160314500Y-92103500D01*
X160314500Y-92083500D01*
X159167250Y-92083500D01*
X159060500Y-92190250D01*
X159058434Y-92460500D01*
X159066678Y-92544207D01*
X159091095Y-92624696D01*
X159130745Y-92698876D01*
X159133719Y-92702500D01*
X148524320Y-92702500D01*
X148686886Y-92635163D01*
X148896040Y-92495411D01*
X149073911Y-92317540D01*
X149213663Y-92108386D01*
X149235569Y-92055500D01*
X151455434Y-92055500D01*
X151455434Y-92257000D01*
X151463678Y-92340707D01*
X151488095Y-92421196D01*
X151527745Y-92495376D01*
X151581105Y-92560395D01*
X151646124Y-92613755D01*
X151720304Y-92653405D01*
X151800793Y-92677822D01*
X151884500Y-92686066D01*
X152534500Y-92686066D01*
X152618207Y-92677822D01*
X152698696Y-92653405D01*
X152772876Y-92613755D01*
X152837895Y-92560395D01*
X152844500Y-92552347D01*
X152851105Y-92560395D01*
X152916124Y-92613755D01*
X152990304Y-92653405D01*
X153070793Y-92677822D01*
X153154500Y-92686066D01*
X153804500Y-92686066D01*
X153888207Y-92677822D01*
X153968696Y-92653405D01*
X154042876Y-92613755D01*
X154107895Y-92560395D01*
X154114500Y-92552347D01*
X154121105Y-92560395D01*
X154186124Y-92613755D01*
X154260304Y-92653405D01*
X154340793Y-92677822D01*
X154424500Y-92686066D01*
X155074500Y-92686066D01*
X155158207Y-92677822D01*
X155238696Y-92653405D01*
X155312876Y-92613755D01*
X155377895Y-92560395D01*
X155384500Y-92552347D01*
X155391105Y-92560395D01*
X155456124Y-92613755D01*
X155530304Y-92653405D01*
X155610793Y-92677822D01*
X155694500Y-92686066D01*
X156344500Y-92686066D01*
X156428207Y-92677822D01*
X156508696Y-92653405D01*
X156582876Y-92613755D01*
X156647895Y-92560395D01*
X156701255Y-92495376D01*
X156740905Y-92421196D01*
X156765322Y-92340707D01*
X156773566Y-92257000D01*
X156773566Y-91660500D01*
X159058434Y-91660500D01*
X159060500Y-91930750D01*
X159167250Y-92037500D01*
X160314500Y-92037500D01*
X160314500Y-91340250D01*
X160360500Y-91340250D01*
X160360500Y-92037500D01*
X161507750Y-92037500D01*
X161614500Y-91930750D01*
X161616566Y-91660500D01*
X161608322Y-91576793D01*
X161583905Y-91496304D01*
X161544255Y-91422124D01*
X161490895Y-91357105D01*
X161425876Y-91303745D01*
X161351696Y-91264095D01*
X161271207Y-91239678D01*
X161187500Y-91231434D01*
X160467250Y-91233500D01*
X160360500Y-91340250D01*
X160314500Y-91340250D01*
X160207750Y-91233500D01*
X159487500Y-91231434D01*
X159403793Y-91239678D01*
X159323304Y-91264095D01*
X159249124Y-91303745D01*
X159184105Y-91357105D01*
X159130745Y-91422124D01*
X159091095Y-91496304D01*
X159066678Y-91576793D01*
X159058434Y-91660500D01*
X156773566Y-91660500D01*
X156773566Y-90760500D01*
X161008434Y-90760500D01*
X161016678Y-90844207D01*
X161041095Y-90924696D01*
X161080745Y-90998876D01*
X161134105Y-91063895D01*
X161199124Y-91117255D01*
X161273304Y-91156905D01*
X161353793Y-91181322D01*
X161437500Y-91189566D01*
X161857750Y-91187500D01*
X161964500Y-91080750D01*
X161964500Y-90383500D01*
X161117250Y-90383500D01*
X161010500Y-90490250D01*
X161008434Y-90760500D01*
X156773566Y-90760500D01*
X156773566Y-90557000D01*
X156765322Y-90473293D01*
X156740905Y-90392804D01*
X156701255Y-90318624D01*
X156647895Y-90253605D01*
X156582876Y-90200245D01*
X156570229Y-90193485D01*
X156563512Y-90125289D01*
X156531948Y-90021237D01*
X156499484Y-89960500D01*
X161008434Y-89960500D01*
X161010500Y-90230750D01*
X161117250Y-90337500D01*
X161964500Y-90337500D01*
X161964500Y-89640250D01*
X161857750Y-89533500D01*
X161437500Y-89531434D01*
X161353793Y-89539678D01*
X161273304Y-89564095D01*
X161199124Y-89603745D01*
X161134105Y-89657105D01*
X161080745Y-89722124D01*
X161041095Y-89796304D01*
X161016678Y-89876793D01*
X161008434Y-89960500D01*
X156499484Y-89960500D01*
X156480691Y-89925342D01*
X156411711Y-89841289D01*
X156390654Y-89824008D01*
X151951996Y-85385352D01*
X152079750Y-85384000D01*
X152186500Y-85277250D01*
X152186500Y-84130000D01*
X151564250Y-84130000D01*
X151457500Y-84236750D01*
X151455629Y-84888985D01*
X150079001Y-83512357D01*
X150061711Y-83491289D01*
X149977658Y-83422309D01*
X149881763Y-83371052D01*
X149777711Y-83339488D01*
X149696609Y-83331500D01*
X149696606Y-83331500D01*
X149669500Y-83328830D01*
X149642394Y-83331500D01*
X149361066Y-83331500D01*
X149361066Y-83257000D01*
X151455434Y-83257000D01*
X151457500Y-83977250D01*
X151564250Y-84084000D01*
X152186500Y-84084000D01*
X152186500Y-82936750D01*
X152079750Y-82830000D01*
X151884500Y-82827934D01*
X151800793Y-82836178D01*
X151720304Y-82860595D01*
X151646124Y-82900245D01*
X151581105Y-82953605D01*
X151527745Y-83018624D01*
X151488095Y-83092804D01*
X151463678Y-83173293D01*
X151455434Y-83257000D01*
X149361066Y-83257000D01*
X149361066Y-83033500D01*
X149352822Y-82949793D01*
X149328405Y-82869304D01*
X149288755Y-82795124D01*
X149235395Y-82730105D01*
X149179825Y-82684500D01*
X159098741Y-82684500D01*
X159091095Y-82698804D01*
%TD*%
M02*
