%FSLAX45Y45*%
G04 Gerber Fmt 4.5, Leading zero omitted, Abs format (unit mm)*
G04 Created by KiCad (PCBNEW (5.1.6)-1) date 2025-01-10 10:33:34*
%MOMM*%
%LPD*%
G01*
G04 APERTURE LIST*
%TA.AperFunction,Profile*%
%ADD10C,0.050000*%
%TD*%
%ADD11C,0.200000*%
%ADD12C,0.300000*%
G04 APERTURE END LIST*
D10*
X14465300Y-8223250D02*
X16230600Y-8223250D01*
X16230600Y-8223250D02*
G75*
G02*
X16294100Y-8286750I0J-63500D01*
G01*
X16230600Y-9315450D02*
X14401800Y-9315450D01*
X16294100Y-9251950D02*
G75*
G02*
X16230600Y-9315450I-63500J0D01*
G01*
X14401800Y-9315450D02*
X14401800Y-8286750D01*
X14401800Y-8286750D02*
G75*
G02*
X14465300Y-8223250I63500J0D01*
G01*
X16294100Y-8286750D02*
X16294100Y-9251950D01*
D11*
D12*
X14685728Y-9783664D02*
X14685728Y-9483664D01*
X14757157Y-9483664D01*
X14800014Y-9497950D01*
X14828586Y-9526522D01*
X14842871Y-9555093D01*
X14857157Y-9612236D01*
X14857157Y-9655093D01*
X14842871Y-9712236D01*
X14828586Y-9740807D01*
X14800014Y-9769379D01*
X14757157Y-9783664D01*
X14685728Y-9783664D01*
X14985728Y-9783664D02*
X14985728Y-9583664D01*
X14985728Y-9640807D02*
X15000014Y-9612236D01*
X15014300Y-9597950D01*
X15042871Y-9583664D01*
X15071443Y-9583664D01*
X15171443Y-9783664D02*
X15171443Y-9583664D01*
X15171443Y-9483664D02*
X15157157Y-9497950D01*
X15171443Y-9512236D01*
X15185728Y-9497950D01*
X15171443Y-9483664D01*
X15171443Y-9512236D01*
X15357157Y-9783664D02*
X15328586Y-9769379D01*
X15314300Y-9740807D01*
X15314300Y-9483664D01*
X15514300Y-9783664D02*
X15485728Y-9769379D01*
X15471443Y-9740807D01*
X15471443Y-9483664D01*
X15857157Y-9783664D02*
X15857157Y-9483664D01*
X15957157Y-9697950D01*
X16057157Y-9483664D01*
X16057157Y-9783664D01*
X16328586Y-9783664D02*
X16328586Y-9626522D01*
X16314300Y-9597950D01*
X16285728Y-9583664D01*
X16228586Y-9583664D01*
X16200014Y-9597950D01*
X16328586Y-9769379D02*
X16300014Y-9783664D01*
X16228586Y-9783664D01*
X16200014Y-9769379D01*
X16185728Y-9740807D01*
X16185728Y-9712236D01*
X16200014Y-9683664D01*
X16228586Y-9669379D01*
X16300014Y-9669379D01*
X16328586Y-9655093D01*
X16471443Y-9583664D02*
X16471443Y-9883664D01*
X16471443Y-9597950D02*
X16500014Y-9583664D01*
X16557157Y-9583664D01*
X16585728Y-9597950D01*
X16600014Y-9612236D01*
X16614300Y-9640807D01*
X16614300Y-9726522D01*
X16600014Y-9755093D01*
X16585728Y-9769379D01*
X16557157Y-9783664D01*
X16500014Y-9783664D01*
X16471443Y-9769379D01*
X16742871Y-9755093D02*
X16757157Y-9769379D01*
X16742871Y-9783664D01*
X16728586Y-9769379D01*
X16742871Y-9755093D01*
X16742871Y-9783664D01*
X16742871Y-9597950D02*
X16757157Y-9612236D01*
X16742871Y-9626522D01*
X16728586Y-9612236D01*
X16742871Y-9597950D01*
X16742871Y-9626522D01*
M02*
