%TF.GenerationSoftware,KiCad,Pcbnew,(5.1.6)-1*%
%TF.CreationDate,2025-01-10T10:07:39-05:00*%
%TF.ProjectId,full-can-programmer,66756c6c-2d63-4616-9e2d-70726f677261,rev?*%
%TF.SameCoordinates,Original*%
%TF.FileFunction,Copper,L2,Bot*%
%TF.FilePolarity,Positive*%
%FSLAX46Y46*%
G04 Gerber Fmt 4.6, Leading zero omitted, Abs format (unit mm)*
G04 Created by KiCad (PCBNEW (5.1.6)-1) date 2025-01-10 10:07:39*
%MOMM*%
%LPD*%
G01*
G04 APERTURE LIST*
%TA.AperFunction,ComponentPad*%
%ADD10R,1.700000X1.700000*%
%TD*%
%TA.AperFunction,ComponentPad*%
%ADD11O,1.700000X1.700000*%
%TD*%
%TA.AperFunction,SMDPad,CuDef*%
%ADD12R,0.650000X1.700000*%
%TD*%
%TA.AperFunction,ViaPad*%
%ADD13C,0.800000*%
%TD*%
%TA.AperFunction,Conductor*%
%ADD14C,0.250000*%
%TD*%
%TA.AperFunction,Conductor*%
%ADD15C,0.254000*%
%TD*%
G04 APERTURE END LIST*
%TO.P,C1,1*%
%TO.N,/VIN*%
%TA.AperFunction,SMDPad,CuDef*%
G36*
G01*
X144837999Y-83617000D02*
X145738001Y-83617000D01*
G75*
G02*
X145988000Y-83866999I0J-249999D01*
G01*
X145988000Y-84517001D01*
G75*
G02*
X145738001Y-84767000I-249999J0D01*
G01*
X144837999Y-84767000D01*
G75*
G02*
X144588000Y-84517001I0J249999D01*
G01*
X144588000Y-83866999D01*
G75*
G02*
X144837999Y-83617000I249999J0D01*
G01*
G37*
%TD.AperFunction*%
%TO.P,C1,2*%
%TO.N,GND*%
%TA.AperFunction,SMDPad,CuDef*%
G36*
G01*
X144837999Y-85667000D02*
X145738001Y-85667000D01*
G75*
G02*
X145988000Y-85916999I0J-249999D01*
G01*
X145988000Y-86567001D01*
G75*
G02*
X145738001Y-86817000I-249999J0D01*
G01*
X144837999Y-86817000D01*
G75*
G02*
X144588000Y-86567001I0J249999D01*
G01*
X144588000Y-85916999D01*
G75*
G02*
X144837999Y-85667000I249999J0D01*
G01*
G37*
%TD.AperFunction*%
%TD*%
D10*
%TO.P,J1,1*%
%TO.N,/VIN*%
X148082000Y-83883500D03*
D11*
%TO.P,J1,2*%
%TO.N,GND*%
X148082000Y-86423500D03*
%TO.P,J1,3*%
%TO.N,/SCK*%
X148082000Y-88963500D03*
%TO.P,J1,4*%
%TO.N,/MOSI*%
X148082000Y-91503500D03*
%TD*%
D12*
%TO.P,U1,1*%
%TO.N,/RESET*%
X160845500Y-91343500D03*
%TO.P,U1,2*%
%TO.N,/SW_A*%
X159575500Y-91343500D03*
%TO.P,U1,3*%
%TO.N,/SW_B*%
X158305500Y-91343500D03*
%TO.P,U1,4*%
%TO.N,GND*%
X157035500Y-91343500D03*
%TO.P,U1,5*%
%TO.N,/MOSI*%
X157035500Y-84043500D03*
%TO.P,U1,6*%
%TO.N,/MISO*%
X158305500Y-84043500D03*
%TO.P,U1,7*%
%TO.N,/SCK*%
X159575500Y-84043500D03*
%TO.P,U1,8*%
%TO.N,/VIN*%
X160845500Y-84043500D03*
%TD*%
D10*
%TO.P,J2,1*%
%TO.N,/RESET*%
X151511000Y-83883500D03*
D11*
%TO.P,J2,2*%
%TO.N,/MOSI*%
X151511000Y-86423500D03*
%TO.P,J2,3*%
%TO.N,/MISO*%
X151511000Y-88963500D03*
%TO.P,J2,4*%
%TO.N,/SCK*%
X151511000Y-91503500D03*
%TD*%
D13*
%TO.N,GND*%
X155257500Y-91376500D03*
X154686000Y-83756500D03*
%TO.N,/SW_A*%
X159575500Y-89535000D03*
%TO.N,/SW_B*%
X157226000Y-88646000D03*
%TO.N,/RESET*%
X160845500Y-92529500D03*
%TD*%
D14*
%TO.N,/VIN*%
X147773500Y-84192000D02*
X148082000Y-83883500D01*
X145288000Y-84192000D02*
X147773500Y-84192000D01*
X160515500Y-82613500D02*
X149352000Y-82613500D01*
X149352000Y-82613500D02*
X148082000Y-83883500D01*
X160845500Y-84043500D02*
X160845500Y-82943500D01*
X160845500Y-82943500D02*
X160515500Y-82613500D01*
%TO.N,GND*%
X157035500Y-91343500D02*
X155290500Y-91343500D01*
X155290500Y-91343500D02*
X155257500Y-91376500D01*
X149352000Y-85153500D02*
X148082000Y-86423500D01*
X154686000Y-83756500D02*
X153289000Y-85153500D01*
X153289000Y-85153500D02*
X149352000Y-85153500D01*
%TO.N,/SW_A*%
X159575500Y-89535000D02*
X159575500Y-91343500D01*
%TO.N,/SW_B*%
X158305500Y-91343500D02*
X158305500Y-89725500D01*
X158305500Y-89725500D02*
X157226000Y-88646000D01*
%TO.N,/SCK*%
X159575500Y-84641081D02*
X159575500Y-84043500D01*
X152713081Y-91503500D02*
X159575500Y-84641081D01*
X151511000Y-91503500D02*
X152713081Y-91503500D01*
X150622000Y-91503500D02*
X151511000Y-91503500D01*
X148082000Y-88963500D02*
X150622000Y-91503500D01*
%TO.N,/MOSI*%
X154655500Y-86423500D02*
X157035500Y-84043500D01*
X151511000Y-86423500D02*
X154655500Y-86423500D01*
%TO.N,/RESET*%
X160845500Y-92529500D02*
X160845500Y-91343500D01*
%TO.N,/MISO*%
X158305500Y-84533502D02*
X158305500Y-84043500D01*
X153875502Y-88963500D02*
X158305500Y-84533502D01*
X151511000Y-88963500D02*
X153875502Y-88963500D01*
%TD*%
D15*
%TO.N,GND*%
G36*
X150231934Y-84733500D02*
G01*
X150240178Y-84817207D01*
X150264595Y-84897696D01*
X150304245Y-84971876D01*
X150357605Y-85036895D01*
X150422624Y-85090255D01*
X150496804Y-85129905D01*
X150577293Y-85154322D01*
X150661000Y-85162566D01*
X151304456Y-85162566D01*
X151138513Y-85195574D01*
X150906114Y-85291837D01*
X150696960Y-85431589D01*
X150519089Y-85609460D01*
X150379337Y-85818614D01*
X150283074Y-86051013D01*
X150234000Y-86297726D01*
X150234000Y-86549274D01*
X150283074Y-86795987D01*
X150379337Y-87028386D01*
X150519089Y-87237540D01*
X150696960Y-87415411D01*
X150906114Y-87555163D01*
X151138513Y-87651426D01*
X151350034Y-87693500D01*
X151138513Y-87735574D01*
X150906114Y-87831837D01*
X150696960Y-87971589D01*
X150519089Y-88149460D01*
X150379337Y-88358614D01*
X150283074Y-88591013D01*
X150234000Y-88837726D01*
X150234000Y-89089274D01*
X150283074Y-89335987D01*
X150379337Y-89568386D01*
X150519089Y-89777540D01*
X150696960Y-89955411D01*
X150906114Y-90095163D01*
X151138513Y-90191426D01*
X151350034Y-90233500D01*
X151138513Y-90275574D01*
X150906114Y-90371837D01*
X150696960Y-90511589D01*
X150553847Y-90654702D01*
X149288019Y-89388875D01*
X149309926Y-89335987D01*
X149359000Y-89089274D01*
X149359000Y-88837726D01*
X149309926Y-88591013D01*
X149213663Y-88358614D01*
X149073911Y-88149460D01*
X148896040Y-87971589D01*
X148686886Y-87831837D01*
X148454487Y-87735574D01*
X148207774Y-87686500D01*
X148105002Y-87686500D01*
X148105002Y-87593545D01*
X148304451Y-87680977D01*
X148545498Y-87613417D01*
X148768733Y-87500129D01*
X148965578Y-87345467D01*
X149128467Y-87155374D01*
X149251141Y-86937156D01*
X149328886Y-86699198D01*
X149339476Y-86645951D01*
X149252024Y-86446500D01*
X148105000Y-86446500D01*
X148105000Y-86466500D01*
X148059000Y-86466500D01*
X148059000Y-86446500D01*
X146911976Y-86446500D01*
X146824524Y-86645951D01*
X146835114Y-86699198D01*
X146912859Y-86937156D01*
X147035533Y-87155374D01*
X147198422Y-87345467D01*
X147395267Y-87500129D01*
X147618502Y-87613417D01*
X147859549Y-87680977D01*
X148058998Y-87593545D01*
X148058998Y-87686500D01*
X147956226Y-87686500D01*
X147709513Y-87735574D01*
X147477114Y-87831837D01*
X147267960Y-87971589D01*
X147090089Y-88149460D01*
X146950337Y-88358614D01*
X146854074Y-88591013D01*
X146805000Y-88837726D01*
X146805000Y-89089274D01*
X146854074Y-89335987D01*
X146950337Y-89568386D01*
X147090089Y-89777540D01*
X147267960Y-89955411D01*
X147477114Y-90095163D01*
X147709513Y-90191426D01*
X147921034Y-90233500D01*
X147709513Y-90275574D01*
X147477114Y-90371837D01*
X147267960Y-90511589D01*
X147090089Y-90689460D01*
X146950337Y-90898614D01*
X146854074Y-91131013D01*
X146805000Y-91377726D01*
X146805000Y-91629274D01*
X146854074Y-91875987D01*
X146950337Y-92108386D01*
X147090089Y-92317540D01*
X147267960Y-92495411D01*
X147477114Y-92635163D01*
X147639680Y-92702500D01*
X144470000Y-92702500D01*
X144470000Y-87227419D01*
X144504293Y-87237822D01*
X144588000Y-87246066D01*
X145158250Y-87244000D01*
X145265000Y-87137250D01*
X145265000Y-86265000D01*
X145311000Y-86265000D01*
X145311000Y-87137250D01*
X145417750Y-87244000D01*
X145988000Y-87246066D01*
X146071707Y-87237822D01*
X146152196Y-87213405D01*
X146226376Y-87173755D01*
X146291395Y-87120395D01*
X146344755Y-87055376D01*
X146384405Y-86981196D01*
X146408822Y-86900707D01*
X146417066Y-86817000D01*
X146415000Y-86371750D01*
X146308250Y-86265000D01*
X145311000Y-86265000D01*
X145265000Y-86265000D01*
X145245000Y-86265000D01*
X145245000Y-86219000D01*
X145265000Y-86219000D01*
X145265000Y-85346750D01*
X145311000Y-85346750D01*
X145311000Y-86219000D01*
X146308250Y-86219000D01*
X146415000Y-86112250D01*
X146417066Y-85667000D01*
X146408822Y-85583293D01*
X146384405Y-85502804D01*
X146344755Y-85428624D01*
X146291395Y-85363605D01*
X146226376Y-85310245D01*
X146152196Y-85270595D01*
X146071707Y-85246178D01*
X145988000Y-85237934D01*
X145417750Y-85240000D01*
X145311000Y-85346750D01*
X145265000Y-85346750D01*
X145158250Y-85240000D01*
X144588000Y-85237934D01*
X144504293Y-85246178D01*
X144470000Y-85256581D01*
X144470000Y-85086577D01*
X144578132Y-85144375D01*
X144705520Y-85183018D01*
X144837999Y-85196066D01*
X145738001Y-85196066D01*
X145870480Y-85183018D01*
X145997868Y-85144375D01*
X146115269Y-85081623D01*
X146218172Y-84997172D01*
X146302623Y-84894269D01*
X146365375Y-84776868D01*
X146375345Y-84744000D01*
X146803968Y-84744000D01*
X146811178Y-84817207D01*
X146835595Y-84897696D01*
X146875245Y-84971876D01*
X146928605Y-85036895D01*
X146993624Y-85090255D01*
X147067804Y-85129905D01*
X147148293Y-85154322D01*
X147232000Y-85162566D01*
X148058998Y-85162566D01*
X148058998Y-85253455D01*
X147859549Y-85166023D01*
X147618502Y-85233583D01*
X147395267Y-85346871D01*
X147198422Y-85501533D01*
X147035533Y-85691626D01*
X146912859Y-85909844D01*
X146835114Y-86147802D01*
X146824524Y-86201049D01*
X146911976Y-86400500D01*
X148059000Y-86400500D01*
X148059000Y-86380500D01*
X148105000Y-86380500D01*
X148105000Y-86400500D01*
X149252024Y-86400500D01*
X149339476Y-86201049D01*
X149328886Y-86147802D01*
X149251141Y-85909844D01*
X149128467Y-85691626D01*
X148965578Y-85501533D01*
X148768733Y-85346871D01*
X148545498Y-85233583D01*
X148304451Y-85166023D01*
X148105002Y-85253455D01*
X148105002Y-85162566D01*
X148932000Y-85162566D01*
X149015707Y-85154322D01*
X149096196Y-85129905D01*
X149170376Y-85090255D01*
X149235395Y-85036895D01*
X149288755Y-84971876D01*
X149328405Y-84897696D01*
X149352822Y-84817207D01*
X149361066Y-84733500D01*
X149361066Y-83385079D01*
X149580646Y-83165500D01*
X150231934Y-83165500D01*
X150231934Y-84733500D01*
G37*
X150231934Y-84733500D02*
X150240178Y-84817207D01*
X150264595Y-84897696D01*
X150304245Y-84971876D01*
X150357605Y-85036895D01*
X150422624Y-85090255D01*
X150496804Y-85129905D01*
X150577293Y-85154322D01*
X150661000Y-85162566D01*
X151304456Y-85162566D01*
X151138513Y-85195574D01*
X150906114Y-85291837D01*
X150696960Y-85431589D01*
X150519089Y-85609460D01*
X150379337Y-85818614D01*
X150283074Y-86051013D01*
X150234000Y-86297726D01*
X150234000Y-86549274D01*
X150283074Y-86795987D01*
X150379337Y-87028386D01*
X150519089Y-87237540D01*
X150696960Y-87415411D01*
X150906114Y-87555163D01*
X151138513Y-87651426D01*
X151350034Y-87693500D01*
X151138513Y-87735574D01*
X150906114Y-87831837D01*
X150696960Y-87971589D01*
X150519089Y-88149460D01*
X150379337Y-88358614D01*
X150283074Y-88591013D01*
X150234000Y-88837726D01*
X150234000Y-89089274D01*
X150283074Y-89335987D01*
X150379337Y-89568386D01*
X150519089Y-89777540D01*
X150696960Y-89955411D01*
X150906114Y-90095163D01*
X151138513Y-90191426D01*
X151350034Y-90233500D01*
X151138513Y-90275574D01*
X150906114Y-90371837D01*
X150696960Y-90511589D01*
X150553847Y-90654702D01*
X149288019Y-89388875D01*
X149309926Y-89335987D01*
X149359000Y-89089274D01*
X149359000Y-88837726D01*
X149309926Y-88591013D01*
X149213663Y-88358614D01*
X149073911Y-88149460D01*
X148896040Y-87971589D01*
X148686886Y-87831837D01*
X148454487Y-87735574D01*
X148207774Y-87686500D01*
X148105002Y-87686500D01*
X148105002Y-87593545D01*
X148304451Y-87680977D01*
X148545498Y-87613417D01*
X148768733Y-87500129D01*
X148965578Y-87345467D01*
X149128467Y-87155374D01*
X149251141Y-86937156D01*
X149328886Y-86699198D01*
X149339476Y-86645951D01*
X149252024Y-86446500D01*
X148105000Y-86446500D01*
X148105000Y-86466500D01*
X148059000Y-86466500D01*
X148059000Y-86446500D01*
X146911976Y-86446500D01*
X146824524Y-86645951D01*
X146835114Y-86699198D01*
X146912859Y-86937156D01*
X147035533Y-87155374D01*
X147198422Y-87345467D01*
X147395267Y-87500129D01*
X147618502Y-87613417D01*
X147859549Y-87680977D01*
X148058998Y-87593545D01*
X148058998Y-87686500D01*
X147956226Y-87686500D01*
X147709513Y-87735574D01*
X147477114Y-87831837D01*
X147267960Y-87971589D01*
X147090089Y-88149460D01*
X146950337Y-88358614D01*
X146854074Y-88591013D01*
X146805000Y-88837726D01*
X146805000Y-89089274D01*
X146854074Y-89335987D01*
X146950337Y-89568386D01*
X147090089Y-89777540D01*
X147267960Y-89955411D01*
X147477114Y-90095163D01*
X147709513Y-90191426D01*
X147921034Y-90233500D01*
X147709513Y-90275574D01*
X147477114Y-90371837D01*
X147267960Y-90511589D01*
X147090089Y-90689460D01*
X146950337Y-90898614D01*
X146854074Y-91131013D01*
X146805000Y-91377726D01*
X146805000Y-91629274D01*
X146854074Y-91875987D01*
X146950337Y-92108386D01*
X147090089Y-92317540D01*
X147267960Y-92495411D01*
X147477114Y-92635163D01*
X147639680Y-92702500D01*
X144470000Y-92702500D01*
X144470000Y-87227419D01*
X144504293Y-87237822D01*
X144588000Y-87246066D01*
X145158250Y-87244000D01*
X145265000Y-87137250D01*
X145265000Y-86265000D01*
X145311000Y-86265000D01*
X145311000Y-87137250D01*
X145417750Y-87244000D01*
X145988000Y-87246066D01*
X146071707Y-87237822D01*
X146152196Y-87213405D01*
X146226376Y-87173755D01*
X146291395Y-87120395D01*
X146344755Y-87055376D01*
X146384405Y-86981196D01*
X146408822Y-86900707D01*
X146417066Y-86817000D01*
X146415000Y-86371750D01*
X146308250Y-86265000D01*
X145311000Y-86265000D01*
X145265000Y-86265000D01*
X145245000Y-86265000D01*
X145245000Y-86219000D01*
X145265000Y-86219000D01*
X145265000Y-85346750D01*
X145311000Y-85346750D01*
X145311000Y-86219000D01*
X146308250Y-86219000D01*
X146415000Y-86112250D01*
X146417066Y-85667000D01*
X146408822Y-85583293D01*
X146384405Y-85502804D01*
X146344755Y-85428624D01*
X146291395Y-85363605D01*
X146226376Y-85310245D01*
X146152196Y-85270595D01*
X146071707Y-85246178D01*
X145988000Y-85237934D01*
X145417750Y-85240000D01*
X145311000Y-85346750D01*
X145265000Y-85346750D01*
X145158250Y-85240000D01*
X144588000Y-85237934D01*
X144504293Y-85246178D01*
X144470000Y-85256581D01*
X144470000Y-85086577D01*
X144578132Y-85144375D01*
X144705520Y-85183018D01*
X144837999Y-85196066D01*
X145738001Y-85196066D01*
X145870480Y-85183018D01*
X145997868Y-85144375D01*
X146115269Y-85081623D01*
X146218172Y-84997172D01*
X146302623Y-84894269D01*
X146365375Y-84776868D01*
X146375345Y-84744000D01*
X146803968Y-84744000D01*
X146811178Y-84817207D01*
X146835595Y-84897696D01*
X146875245Y-84971876D01*
X146928605Y-85036895D01*
X146993624Y-85090255D01*
X147067804Y-85129905D01*
X147148293Y-85154322D01*
X147232000Y-85162566D01*
X148058998Y-85162566D01*
X148058998Y-85253455D01*
X147859549Y-85166023D01*
X147618502Y-85233583D01*
X147395267Y-85346871D01*
X147198422Y-85501533D01*
X147035533Y-85691626D01*
X146912859Y-85909844D01*
X146835114Y-86147802D01*
X146824524Y-86201049D01*
X146911976Y-86400500D01*
X148059000Y-86400500D01*
X148059000Y-86380500D01*
X148105000Y-86380500D01*
X148105000Y-86400500D01*
X149252024Y-86400500D01*
X149339476Y-86201049D01*
X149328886Y-86147802D01*
X149251141Y-85909844D01*
X149128467Y-85691626D01*
X148965578Y-85501533D01*
X148768733Y-85346871D01*
X148545498Y-85233583D01*
X148304451Y-85166023D01*
X148105002Y-85253455D01*
X148105002Y-85162566D01*
X148932000Y-85162566D01*
X149015707Y-85154322D01*
X149096196Y-85129905D01*
X149170376Y-85090255D01*
X149235395Y-85036895D01*
X149288755Y-84971876D01*
X149328405Y-84897696D01*
X149352822Y-84817207D01*
X149361066Y-84733500D01*
X149361066Y-83385079D01*
X149580646Y-83165500D01*
X150231934Y-83165500D01*
X150231934Y-84733500D01*
G36*
X156399000Y-88727452D02*
G01*
X156430782Y-88887227D01*
X156493123Y-89037731D01*
X156583628Y-89173181D01*
X156698819Y-89288372D01*
X156834269Y-89378877D01*
X156984773Y-89441218D01*
X157144548Y-89473000D01*
X157272355Y-89473000D01*
X157753501Y-89954147D01*
X157753501Y-90130664D01*
X157742124Y-90136745D01*
X157677105Y-90190105D01*
X157670500Y-90198153D01*
X157663895Y-90190105D01*
X157598876Y-90136745D01*
X157524696Y-90097095D01*
X157444207Y-90072678D01*
X157360500Y-90064434D01*
X157165250Y-90066500D01*
X157058500Y-90173250D01*
X157058500Y-91320500D01*
X157078500Y-91320500D01*
X157078500Y-91366500D01*
X157058500Y-91366500D01*
X157058500Y-92513750D01*
X157165250Y-92620500D01*
X157360500Y-92622566D01*
X157444207Y-92614322D01*
X157524696Y-92589905D01*
X157598876Y-92550255D01*
X157663895Y-92496895D01*
X157670500Y-92488847D01*
X157677105Y-92496895D01*
X157742124Y-92550255D01*
X157816304Y-92589905D01*
X157896793Y-92614322D01*
X157980500Y-92622566D01*
X158630500Y-92622566D01*
X158714207Y-92614322D01*
X158794696Y-92589905D01*
X158868876Y-92550255D01*
X158933895Y-92496895D01*
X158940500Y-92488847D01*
X158947105Y-92496895D01*
X159012124Y-92550255D01*
X159086304Y-92589905D01*
X159166793Y-92614322D01*
X159250500Y-92622566D01*
X159900500Y-92622566D01*
X159984207Y-92614322D01*
X160018500Y-92603919D01*
X160018500Y-92610952D01*
X160036710Y-92702500D01*
X151953320Y-92702500D01*
X152115886Y-92635163D01*
X152325040Y-92495411D01*
X152502911Y-92317540D01*
X152585791Y-92193500D01*
X156281434Y-92193500D01*
X156289678Y-92277207D01*
X156314095Y-92357696D01*
X156353745Y-92431876D01*
X156407105Y-92496895D01*
X156472124Y-92550255D01*
X156546304Y-92589905D01*
X156626793Y-92614322D01*
X156710500Y-92622566D01*
X156905750Y-92620500D01*
X157012500Y-92513750D01*
X157012500Y-91366500D01*
X156390250Y-91366500D01*
X156283500Y-91473250D01*
X156281434Y-92193500D01*
X152585791Y-92193500D01*
X152642663Y-92108386D01*
X152664569Y-92055500D01*
X152685975Y-92055500D01*
X152713081Y-92058170D01*
X152740187Y-92055500D01*
X152740190Y-92055500D01*
X152821292Y-92047512D01*
X152925344Y-92015948D01*
X153021239Y-91964691D01*
X153105292Y-91895711D01*
X153122582Y-91874643D01*
X154503725Y-90493500D01*
X156281434Y-90493500D01*
X156283500Y-91213750D01*
X156390250Y-91320500D01*
X157012500Y-91320500D01*
X157012500Y-90173250D01*
X156905750Y-90066500D01*
X156710500Y-90064434D01*
X156626793Y-90072678D01*
X156546304Y-90097095D01*
X156472124Y-90136745D01*
X156407105Y-90190105D01*
X156353745Y-90255124D01*
X156314095Y-90329304D01*
X156289678Y-90409793D01*
X156281434Y-90493500D01*
X154503725Y-90493500D01*
X156399000Y-88598225D01*
X156399000Y-88727452D01*
G37*
X156399000Y-88727452D02*
X156430782Y-88887227D01*
X156493123Y-89037731D01*
X156583628Y-89173181D01*
X156698819Y-89288372D01*
X156834269Y-89378877D01*
X156984773Y-89441218D01*
X157144548Y-89473000D01*
X157272355Y-89473000D01*
X157753501Y-89954147D01*
X157753501Y-90130664D01*
X157742124Y-90136745D01*
X157677105Y-90190105D01*
X157670500Y-90198153D01*
X157663895Y-90190105D01*
X157598876Y-90136745D01*
X157524696Y-90097095D01*
X157444207Y-90072678D01*
X157360500Y-90064434D01*
X157165250Y-90066500D01*
X157058500Y-90173250D01*
X157058500Y-91320500D01*
X157078500Y-91320500D01*
X157078500Y-91366500D01*
X157058500Y-91366500D01*
X157058500Y-92513750D01*
X157165250Y-92620500D01*
X157360500Y-92622566D01*
X157444207Y-92614322D01*
X157524696Y-92589905D01*
X157598876Y-92550255D01*
X157663895Y-92496895D01*
X157670500Y-92488847D01*
X157677105Y-92496895D01*
X157742124Y-92550255D01*
X157816304Y-92589905D01*
X157896793Y-92614322D01*
X157980500Y-92622566D01*
X158630500Y-92622566D01*
X158714207Y-92614322D01*
X158794696Y-92589905D01*
X158868876Y-92550255D01*
X158933895Y-92496895D01*
X158940500Y-92488847D01*
X158947105Y-92496895D01*
X159012124Y-92550255D01*
X159086304Y-92589905D01*
X159166793Y-92614322D01*
X159250500Y-92622566D01*
X159900500Y-92622566D01*
X159984207Y-92614322D01*
X160018500Y-92603919D01*
X160018500Y-92610952D01*
X160036710Y-92702500D01*
X151953320Y-92702500D01*
X152115886Y-92635163D01*
X152325040Y-92495411D01*
X152502911Y-92317540D01*
X152585791Y-92193500D01*
X156281434Y-92193500D01*
X156289678Y-92277207D01*
X156314095Y-92357696D01*
X156353745Y-92431876D01*
X156407105Y-92496895D01*
X156472124Y-92550255D01*
X156546304Y-92589905D01*
X156626793Y-92614322D01*
X156710500Y-92622566D01*
X156905750Y-92620500D01*
X157012500Y-92513750D01*
X157012500Y-91366500D01*
X156390250Y-91366500D01*
X156283500Y-91473250D01*
X156281434Y-92193500D01*
X152585791Y-92193500D01*
X152642663Y-92108386D01*
X152664569Y-92055500D01*
X152685975Y-92055500D01*
X152713081Y-92058170D01*
X152740187Y-92055500D01*
X152740190Y-92055500D01*
X152821292Y-92047512D01*
X152925344Y-92015948D01*
X153021239Y-91964691D01*
X153105292Y-91895711D01*
X153122582Y-91874643D01*
X154503725Y-90493500D01*
X156281434Y-90493500D01*
X156283500Y-91213750D01*
X156390250Y-91320500D01*
X157012500Y-91320500D01*
X157012500Y-90173250D01*
X156905750Y-90066500D01*
X156710500Y-90064434D01*
X156626793Y-90072678D01*
X156546304Y-90097095D01*
X156472124Y-90136745D01*
X156407105Y-90190105D01*
X156353745Y-90255124D01*
X156314095Y-90329304D01*
X156289678Y-90409793D01*
X156281434Y-90493500D01*
X154503725Y-90493500D01*
X156399000Y-88598225D01*
X156399000Y-88727452D01*
G36*
X156281434Y-83193500D02*
G01*
X156281434Y-84016920D01*
X154426856Y-85871500D01*
X152664569Y-85871500D01*
X152642663Y-85818614D01*
X152502911Y-85609460D01*
X152325040Y-85431589D01*
X152115886Y-85291837D01*
X151883487Y-85195574D01*
X151717544Y-85162566D01*
X152361000Y-85162566D01*
X152444707Y-85154322D01*
X152525196Y-85129905D01*
X152599376Y-85090255D01*
X152664395Y-85036895D01*
X152717755Y-84971876D01*
X152757405Y-84897696D01*
X152781822Y-84817207D01*
X152790066Y-84733500D01*
X152790066Y-83165500D01*
X156284192Y-83165500D01*
X156281434Y-83193500D01*
G37*
X156281434Y-83193500D02*
X156281434Y-84016920D01*
X154426856Y-85871500D01*
X152664569Y-85871500D01*
X152642663Y-85818614D01*
X152502911Y-85609460D01*
X152325040Y-85431589D01*
X152115886Y-85291837D01*
X151883487Y-85195574D01*
X151717544Y-85162566D01*
X152361000Y-85162566D01*
X152444707Y-85154322D01*
X152525196Y-85129905D01*
X152599376Y-85090255D01*
X152664395Y-85036895D01*
X152717755Y-84971876D01*
X152757405Y-84897696D01*
X152781822Y-84817207D01*
X152790066Y-84733500D01*
X152790066Y-83165500D01*
X156284192Y-83165500D01*
X156281434Y-83193500D01*
%TD*%
M02*
