%TF.GenerationSoftware,KiCad,Pcbnew,(5.1.6)-1*%
%TF.CreationDate,2025-01-09T16:49:13-05:00*%
%TF.ProjectId,full-can-programmer,66756c6c-2d63-4616-9e2d-70726f677261,rev?*%
%TF.SameCoordinates,Original*%
%TF.FileFunction,Copper,L2,Bot*%
%TF.FilePolarity,Positive*%
%FSLAX46Y46*%
G04 Gerber Fmt 4.6, Leading zero omitted, Abs format (unit mm)*
G04 Created by KiCad (PCBNEW (5.1.6)-1) date 2025-01-09 16:49:13*
%MOMM*%
%LPD*%
G01*
G04 APERTURE LIST*
%TA.AperFunction,ComponentPad*%
%ADD10R,1.700000X1.700000*%
%TD*%
%TA.AperFunction,ComponentPad*%
%ADD11O,1.700000X1.700000*%
%TD*%
%TA.AperFunction,ViaPad*%
%ADD12C,0.800000*%
%TD*%
%TA.AperFunction,Conductor*%
%ADD13C,0.254000*%
%TD*%
G04 APERTURE END LIST*
D10*
%TO.P,J1,1*%
%TO.N,/VIN*%
X148082000Y-83883500D03*
D11*
%TO.P,J1,2*%
%TO.N,GND*%
X148082000Y-86423500D03*
%TO.P,J1,3*%
%TO.N,/SCL_5V*%
X148082000Y-88963500D03*
%TO.P,J1,4*%
%TO.N,/SDA_5V*%
X148082000Y-91503500D03*
%TD*%
D12*
%TO.N,GND*%
X152908000Y-85915500D03*
%TD*%
D13*
%TO.N,GND*%
G36*
X146928605Y-82730105D02*
G01*
X146875245Y-82795124D01*
X146835595Y-82869304D01*
X146811178Y-82949793D01*
X146802934Y-83033500D01*
X146802934Y-84733500D01*
X146811178Y-84817207D01*
X146835595Y-84897696D01*
X146875245Y-84971876D01*
X146928605Y-85036895D01*
X146993624Y-85090255D01*
X147067804Y-85129905D01*
X147148293Y-85154322D01*
X147232000Y-85162566D01*
X148058998Y-85162566D01*
X148058998Y-85253455D01*
X147859549Y-85166023D01*
X147618502Y-85233583D01*
X147395267Y-85346871D01*
X147198422Y-85501533D01*
X147035533Y-85691626D01*
X146912859Y-85909844D01*
X146835114Y-86147802D01*
X146824524Y-86201049D01*
X146911976Y-86400500D01*
X148059000Y-86400500D01*
X148059000Y-86380500D01*
X148105000Y-86380500D01*
X148105000Y-86400500D01*
X149252024Y-86400500D01*
X149339476Y-86201049D01*
X149328886Y-86147802D01*
X149251141Y-85909844D01*
X149128467Y-85691626D01*
X148965578Y-85501533D01*
X148768733Y-85346871D01*
X148545498Y-85233583D01*
X148304451Y-85166023D01*
X148105002Y-85253455D01*
X148105002Y-85162566D01*
X148932000Y-85162566D01*
X149015707Y-85154322D01*
X149096196Y-85129905D01*
X149170376Y-85090255D01*
X149235395Y-85036895D01*
X149288755Y-84971876D01*
X149328405Y-84897696D01*
X149352822Y-84817207D01*
X149361066Y-84733500D01*
X149361066Y-83033500D01*
X149352822Y-82949793D01*
X149328405Y-82869304D01*
X149288755Y-82795124D01*
X149235395Y-82730105D01*
X149179825Y-82684500D01*
X162283894Y-82684500D01*
X162341126Y-82690111D01*
X162374908Y-82700311D01*
X162406071Y-82716881D01*
X162433421Y-82739187D01*
X162455918Y-82766381D01*
X162472702Y-82797424D01*
X162483138Y-82831137D01*
X162489000Y-82886904D01*
X162489001Y-92497384D01*
X162483389Y-92554627D01*
X162473189Y-92588409D01*
X162456619Y-92619571D01*
X162434313Y-92646921D01*
X162407121Y-92669416D01*
X162376077Y-92686202D01*
X162342362Y-92696638D01*
X162286596Y-92702500D01*
X148524320Y-92702500D01*
X148686886Y-92635163D01*
X148896040Y-92495411D01*
X149073911Y-92317540D01*
X149213663Y-92108386D01*
X149309926Y-91875987D01*
X149359000Y-91629274D01*
X149359000Y-91377726D01*
X149309926Y-91131013D01*
X149213663Y-90898614D01*
X149073911Y-90689460D01*
X148896040Y-90511589D01*
X148686886Y-90371837D01*
X148454487Y-90275574D01*
X148242966Y-90233500D01*
X148454487Y-90191426D01*
X148686886Y-90095163D01*
X148896040Y-89955411D01*
X149073911Y-89777540D01*
X149213663Y-89568386D01*
X149309926Y-89335987D01*
X149359000Y-89089274D01*
X149359000Y-88837726D01*
X149309926Y-88591013D01*
X149213663Y-88358614D01*
X149073911Y-88149460D01*
X148896040Y-87971589D01*
X148686886Y-87831837D01*
X148454487Y-87735574D01*
X148207774Y-87686500D01*
X148105002Y-87686500D01*
X148105002Y-87593545D01*
X148304451Y-87680977D01*
X148545498Y-87613417D01*
X148768733Y-87500129D01*
X148965578Y-87345467D01*
X149128467Y-87155374D01*
X149251141Y-86937156D01*
X149328886Y-86699198D01*
X149339476Y-86645951D01*
X149252024Y-86446500D01*
X148105000Y-86446500D01*
X148105000Y-86466500D01*
X148059000Y-86466500D01*
X148059000Y-86446500D01*
X146911976Y-86446500D01*
X146824524Y-86645951D01*
X146835114Y-86699198D01*
X146912859Y-86937156D01*
X147035533Y-87155374D01*
X147198422Y-87345467D01*
X147395267Y-87500129D01*
X147618502Y-87613417D01*
X147859549Y-87680977D01*
X148058998Y-87593545D01*
X148058998Y-87686500D01*
X147956226Y-87686500D01*
X147709513Y-87735574D01*
X147477114Y-87831837D01*
X147267960Y-87971589D01*
X147090089Y-88149460D01*
X146950337Y-88358614D01*
X146854074Y-88591013D01*
X146805000Y-88837726D01*
X146805000Y-89089274D01*
X146854074Y-89335987D01*
X146950337Y-89568386D01*
X147090089Y-89777540D01*
X147267960Y-89955411D01*
X147477114Y-90095163D01*
X147709513Y-90191426D01*
X147921034Y-90233500D01*
X147709513Y-90275574D01*
X147477114Y-90371837D01*
X147267960Y-90511589D01*
X147090089Y-90689460D01*
X146950337Y-90898614D01*
X146854074Y-91131013D01*
X146805000Y-91377726D01*
X146805000Y-91629274D01*
X146854074Y-91875987D01*
X146950337Y-92108386D01*
X147090089Y-92317540D01*
X147267960Y-92495411D01*
X147477114Y-92635163D01*
X147639680Y-92702500D01*
X144470000Y-92702500D01*
X144470000Y-82889606D01*
X144475611Y-82832374D01*
X144485811Y-82798592D01*
X144502381Y-82767429D01*
X144524687Y-82740079D01*
X144551881Y-82717582D01*
X144582924Y-82700798D01*
X144616637Y-82690362D01*
X144672404Y-82684500D01*
X146984175Y-82684500D01*
X146928605Y-82730105D01*
G37*
X146928605Y-82730105D02*
X146875245Y-82795124D01*
X146835595Y-82869304D01*
X146811178Y-82949793D01*
X146802934Y-83033500D01*
X146802934Y-84733500D01*
X146811178Y-84817207D01*
X146835595Y-84897696D01*
X146875245Y-84971876D01*
X146928605Y-85036895D01*
X146993624Y-85090255D01*
X147067804Y-85129905D01*
X147148293Y-85154322D01*
X147232000Y-85162566D01*
X148058998Y-85162566D01*
X148058998Y-85253455D01*
X147859549Y-85166023D01*
X147618502Y-85233583D01*
X147395267Y-85346871D01*
X147198422Y-85501533D01*
X147035533Y-85691626D01*
X146912859Y-85909844D01*
X146835114Y-86147802D01*
X146824524Y-86201049D01*
X146911976Y-86400500D01*
X148059000Y-86400500D01*
X148059000Y-86380500D01*
X148105000Y-86380500D01*
X148105000Y-86400500D01*
X149252024Y-86400500D01*
X149339476Y-86201049D01*
X149328886Y-86147802D01*
X149251141Y-85909844D01*
X149128467Y-85691626D01*
X148965578Y-85501533D01*
X148768733Y-85346871D01*
X148545498Y-85233583D01*
X148304451Y-85166023D01*
X148105002Y-85253455D01*
X148105002Y-85162566D01*
X148932000Y-85162566D01*
X149015707Y-85154322D01*
X149096196Y-85129905D01*
X149170376Y-85090255D01*
X149235395Y-85036895D01*
X149288755Y-84971876D01*
X149328405Y-84897696D01*
X149352822Y-84817207D01*
X149361066Y-84733500D01*
X149361066Y-83033500D01*
X149352822Y-82949793D01*
X149328405Y-82869304D01*
X149288755Y-82795124D01*
X149235395Y-82730105D01*
X149179825Y-82684500D01*
X162283894Y-82684500D01*
X162341126Y-82690111D01*
X162374908Y-82700311D01*
X162406071Y-82716881D01*
X162433421Y-82739187D01*
X162455918Y-82766381D01*
X162472702Y-82797424D01*
X162483138Y-82831137D01*
X162489000Y-82886904D01*
X162489001Y-92497384D01*
X162483389Y-92554627D01*
X162473189Y-92588409D01*
X162456619Y-92619571D01*
X162434313Y-92646921D01*
X162407121Y-92669416D01*
X162376077Y-92686202D01*
X162342362Y-92696638D01*
X162286596Y-92702500D01*
X148524320Y-92702500D01*
X148686886Y-92635163D01*
X148896040Y-92495411D01*
X149073911Y-92317540D01*
X149213663Y-92108386D01*
X149309926Y-91875987D01*
X149359000Y-91629274D01*
X149359000Y-91377726D01*
X149309926Y-91131013D01*
X149213663Y-90898614D01*
X149073911Y-90689460D01*
X148896040Y-90511589D01*
X148686886Y-90371837D01*
X148454487Y-90275574D01*
X148242966Y-90233500D01*
X148454487Y-90191426D01*
X148686886Y-90095163D01*
X148896040Y-89955411D01*
X149073911Y-89777540D01*
X149213663Y-89568386D01*
X149309926Y-89335987D01*
X149359000Y-89089274D01*
X149359000Y-88837726D01*
X149309926Y-88591013D01*
X149213663Y-88358614D01*
X149073911Y-88149460D01*
X148896040Y-87971589D01*
X148686886Y-87831837D01*
X148454487Y-87735574D01*
X148207774Y-87686500D01*
X148105002Y-87686500D01*
X148105002Y-87593545D01*
X148304451Y-87680977D01*
X148545498Y-87613417D01*
X148768733Y-87500129D01*
X148965578Y-87345467D01*
X149128467Y-87155374D01*
X149251141Y-86937156D01*
X149328886Y-86699198D01*
X149339476Y-86645951D01*
X149252024Y-86446500D01*
X148105000Y-86446500D01*
X148105000Y-86466500D01*
X148059000Y-86466500D01*
X148059000Y-86446500D01*
X146911976Y-86446500D01*
X146824524Y-86645951D01*
X146835114Y-86699198D01*
X146912859Y-86937156D01*
X147035533Y-87155374D01*
X147198422Y-87345467D01*
X147395267Y-87500129D01*
X147618502Y-87613417D01*
X147859549Y-87680977D01*
X148058998Y-87593545D01*
X148058998Y-87686500D01*
X147956226Y-87686500D01*
X147709513Y-87735574D01*
X147477114Y-87831837D01*
X147267960Y-87971589D01*
X147090089Y-88149460D01*
X146950337Y-88358614D01*
X146854074Y-88591013D01*
X146805000Y-88837726D01*
X146805000Y-89089274D01*
X146854074Y-89335987D01*
X146950337Y-89568386D01*
X147090089Y-89777540D01*
X147267960Y-89955411D01*
X147477114Y-90095163D01*
X147709513Y-90191426D01*
X147921034Y-90233500D01*
X147709513Y-90275574D01*
X147477114Y-90371837D01*
X147267960Y-90511589D01*
X147090089Y-90689460D01*
X146950337Y-90898614D01*
X146854074Y-91131013D01*
X146805000Y-91377726D01*
X146805000Y-91629274D01*
X146854074Y-91875987D01*
X146950337Y-92108386D01*
X147090089Y-92317540D01*
X147267960Y-92495411D01*
X147477114Y-92635163D01*
X147639680Y-92702500D01*
X144470000Y-92702500D01*
X144470000Y-82889606D01*
X144475611Y-82832374D01*
X144485811Y-82798592D01*
X144502381Y-82767429D01*
X144524687Y-82740079D01*
X144551881Y-82717582D01*
X144582924Y-82700798D01*
X144616637Y-82690362D01*
X144672404Y-82684500D01*
X146984175Y-82684500D01*
X146928605Y-82730105D01*
%TD*%
M02*
